# 3ds Max Wavefront OBJ Exporter v0.97b - (c)2007 guruware
# File Created: 21.09.2026 23:10:39

mtllib arrow.mtl

#
# object Line002
#

v  -1.8277 0.2500 -1.1225
v  -1.7477 0.2165 -1.0265
v  -0.1321 0.2165 -2.3728
v  -0.0582 0.2363 -2.5307
v  -0.0607 0.2500 -2.5951
v  -0.0668 0.2165 -2.7527
v  -1.9078 0.2165 -1.2185
v  -0.0712 0.1250 -2.8681
v  -1.9663 0.1250 -1.2888
v  -0.0728 -0.0000 -2.9103
v  -1.9878 -0.0000 -1.3146
v  -0.0712 -0.1250 -2.8681
v  -1.9663 -0.1250 -1.2888
v  -0.0668 -0.2165 -2.7527
v  -1.9078 -0.2165 -1.2185
v  -0.0607 -0.2500 -2.5951
v  -1.8277 -0.2500 -1.1225
v  1.8591 0.2165 -1.3851
v  1.9121 0.1250 -1.4597
v  1.9315 -0.0000 -1.4870
v  1.9121 -0.1250 -1.4597
v  1.8591 -0.2165 -1.3851
v  0.2429 0.0000 -2.0729
v  1.6420 0.0000 -1.0793
v  1.6614 0.1250 -1.1066
v  0.2094 0.1250 -2.1378
v  1.7144 0.2165 -1.1812
v  0.1179 0.2165 -2.3150
v  1.7867 0.2500 -1.2832
v  -0.0071 0.2500 -2.5570
v  -1.6891 0.1250 -0.9562
v  -0.2236 0.1250 -2.1774
v  -1.6677 0.0000 -0.9305
v  -0.2571 0.0000 -2.1059
v  -1.6891 -0.1250 -0.9562
v  -0.2236 -0.1250 -2.1774
v  -1.7477 -0.2165 -1.0265
v  -0.1321 -0.2165 -2.3728
v  -0.0582 -0.2363 -2.5307
v  -0.0071 -0.2500 -2.5570
v  1.7867 -0.2500 -1.2832
v  1.7144 -0.2165 -1.1812
v  0.1179 -0.2165 -2.3150
v  1.6614 -0.1250 -1.1066
v  0.2094 -0.1250 -2.1378
v  -0.2571 -0.0000 2.1439
v  -0.2236 0.1250 2.1439
v  -0.1321 0.2165 2.1439
v  -0.0071 0.2500 2.1439
v  0.1179 0.2165 2.1439
v  0.2094 0.1250 2.1439
v  0.2429 0.0000 2.1439
v  0.2094 -0.1250 2.1439
v  0.1179 -0.2165 2.1439
v  -0.0071 -0.2500 2.1439
v  -0.1321 -0.2165 2.1439
v  -0.2236 -0.1250 2.1439
v  -0.0129 0.2484 -2.5683
v  -0.0071 0.2500 -2.5683
v  0.0147 0.2442 -2.5683
v  0.0147 -0.2442 -2.5683
v  -0.0071 -0.2500 -2.5683
v  -0.0129 -0.2484 -2.5683
# 63 vertices

vn 0.0000 1.0000 -0.0000
vn 0.3201 0.8660 0.3841
vn 0.2214 0.9383 0.2656
vn 0.0741 0.9761 0.2045
vn -0.0033 0.9963 -0.0860
vn -0.0192 0.8682 -0.4958
vn -0.3201 0.8660 -0.3841
vn -0.5742 0.4422 -0.6890
vn -0.5544 0.5000 -0.6653
vn -0.6402 -0.0000 -0.7682
vn -0.5742 -0.4422 -0.6890
vn -0.5544 -0.5000 -0.6653
vn -0.0192 -0.8682 -0.4958
vn -0.3201 -0.8660 -0.3841
vn -0.0033 -0.9963 -0.0860
vn -0.0000 -1.0000 -0.0000
vn 0.2895 0.8660 -0.4077
vn 0.5014 0.5000 -0.7061
vn 0.5193 0.4422 -0.7313
vn 0.5790 -0.0000 -0.8153
vn 0.5790 0.0000 -0.8153
vn 0.5014 -0.5000 -0.7061
vn 0.5193 -0.4422 -0.7313
vn 0.2895 -0.8660 -0.4077
vn -0.5790 0.0000 0.8153
vn -0.5014 0.5000 0.7061
vn -0.4688 0.5870 0.6601
vn -0.2895 0.8660 0.4077
vn -0.2040 0.9359 0.2873
vn -0.0000 1.0000 -0.0000
vn 0.5544 0.5000 0.6653
vn 0.5160 0.5919 0.6192
vn 0.6402 -0.0000 0.7682
vn 0.6402 0.0000 0.7682
vn 0.5544 -0.5000 0.6653
vn 0.5160 -0.5919 0.6192
vn 0.3201 -0.8660 0.3841
vn 0.2214 -0.9383 0.2656
vn 0.0741 -0.9761 0.2045
vn 0.0345 -0.9994 0.0000
vn 0.0000 -1.0000 -0.0000
vn -0.2895 -0.8660 0.4077
vn -0.2040 -0.9359 0.2873
vn -0.5014 -0.5000 0.7061
vn -0.4688 -0.5870 0.6601
vn -1.0000 -0.0000 0.0000
vn -1.0000 -0.0000 -0.0000
vn -0.8660 0.5000 0.0000
vn -0.8060 0.5919 -0.0000
vn -0.5000 0.8660 0.0000
vn -0.3458 0.9383 -0.0000
vn -0.0000 1.0000 0.0000
vn 0.5000 0.8660 -0.0000
vn 0.3524 0.9359 -0.0000
vn -0.1029 0.9947 -0.0000
vn 0.8660 0.5000 0.0000
vn 0.8096 0.5869 -0.0000
vn 1.0000 0.0000 0.0000
vn 1.0000 0.0000 -0.0000
vn 0.8660 -0.5000 -0.0000
vn 0.8096 -0.5869 -0.0000
vn 0.5000 -0.8660 -0.0000
vn 0.3524 -0.9359 -0.0000
vn -0.0000 -1.0000 0.0000
vn -0.1029 -0.9947 -0.0000
vn -0.5000 -0.8660 -0.0000
vn -0.3458 -0.9383 0.0000
vn -0.2588 -0.9659 0.0000
vn -0.8660 -0.5000 -0.0000
vn -0.8060 -0.5919 -0.0000
vn -0.2588 0.9659 -0.0000
vn 0.1029 0.9947 -0.0000
vn 0.0000 0.0000 -1.0000
vn 0.2588 0.9659 -0.0000
vn -0.2588 -0.9659 -0.0000
vn 0.2588 -0.9659 -0.0000
vn 0.1499 -0.9659 -0.2110
vn -0.7682 0.0000 0.6402
vn -0.7682 -0.0000 0.6402
vn 0.8153 0.0000 0.5790
vn 0.8153 -0.0000 0.5790
vn 0.1499 0.9659 -0.2110
vn 0.0000 0.0000 1.0000
# 83 vertex normals

g Line002
usemtl wire_153228153
s 45
f 1//1 2//2 3//3 4//4 5//5 
s 20
f 5//5 6//6 7//7 1//1 
f 6//6 8//8 9//9 7//7 
s 4
f 8//8 10//10 11//10 9//9 
f 11//10 10//10 12//11 13//12 
s 12
f 13//12 12//11 14//13 15//14 
s 60
f 15//14 14//13 16//15 17//16 
s 1
f 6//6 18//17 19//18 8//19 
f 8//19 19//18 20//20 10//21 
f 20//20 21//22 12//23 10//21 
s 17
f 21//22 22//24 14//13 12//23 
s 1
f 23//25 24//25 25//26 26//27 
s 33
f 26//27 25//26 27//28 28//29 
s 32
f 28//29 27//28 29//1 30//30 
f 4//4 30//30 5//5 
s 12
f 2//2 31//31 32//32 3//3 
s 4
f 31//31 33//33 34//34 32//32 
s 20
f 34//34 33//33 35//35 36//36 
s 16
f 36//36 35//35 37//37 38//38 
s 45
f 39//39 16//15 40//40 
s 61
f 41//41 42//42 43//43 40//40 
s 1
f 42//42 44//44 45//45 43//43 
f 44//44 24//25 23//25 45//45 
s 64
f 34//46 46//47 47//48 32//49 
f 32//49 47//48 48//50 3//51 
f 49//52 50//53 28//54 30//55 
f 50//53 51//56 26//57 28//54 
f 51//56 52//58 23//59 26//57 
f 23//59 52//58 53//60 45//61 
f 45//61 53//60 54//62 43//63 
f 43//63 54//62 55//64 40//65 
f 55//64 56//66 38//67 39//68 40//65 
f 56//66 57//69 36//70 38//67 
f 57//69 46//47 34//46 36//70 
s 16
f 58//71 30//72 59//30 
s 2
f 58//73 59//73 60//73 
s 16
f 59//30 30//72 60//74 
s 2
f 61//73 62//73 63//73 
s 1
f 63//75 62//16 40//40 
f 61//76 40//40 62//16 
s 48
f 61//77 63//77 40//40 16//15 14//13 22//24 41//41 40//40 
s 2
f 17//78 37//78 35//79 33//79 31//78 2//79 1//78 7//78 9//79 11//79 13//79 15//78 
f 21//80 20//80 19//80 18//80 29//80 27//80 25//81 24//80 44//80 42//81 41//81 22//81 
s 52
f 39//39 38//38 37//37 17//16 16//15 
s 45
f 29//1 18//17 6//6 5//5 30//30 58//82 60//82 30//30 
s 64
f 4//71 3//51 48//50 49//52 30//55 
s 1
f 49//83 48//83 47//83 46//83 57//83 56//83 55//83 54//83 53//83 52//83 51//83 50//83 
# 39 polygons - 8 triangles

