# 3ds Max Wavefront OBJ Exporter v0.97b - (c)2007 guruware
# File Created: 20.09.2026 21:30:19

mtllib cone.mtl

#
# object Cone001
#

v  0.9420 0.7121 -0.0000
v  1.3472 0.0000 -0.0000
v  1.3013 0.0000 -0.3487
v  0.9099 0.7121 -0.2438
v  1.1667 0.0000 -0.6736
v  0.8158 0.7121 -0.4710
v  0.6661 0.7121 -0.6661
v  0.9526 0.0000 -0.9526
v  0.4710 0.7121 -0.8158
v  0.6736 0.0000 -1.1667
v  0.3487 0.0000 -1.3013
v  0.2438 0.7121 -0.9099
v  0.0000 0.7121 -0.9420
v  0.0000 0.0000 -1.3472
v  -0.3487 0.0000 -1.3013
v  -0.2438 0.7121 -0.9099
v  -0.4710 0.7121 -0.8158
v  -0.6736 0.0000 -1.1667
v  -0.9526 0.0000 -0.9526
v  -0.6661 0.7121 -0.6661
v  -0.8158 0.7121 -0.4710
v  -1.1667 0.0000 -0.6736
v  -1.3013 0.0000 -0.3487
v  -0.9099 0.7121 -0.2438
v  -0.9420 0.7121 -0.0000
v  -1.3472 0.0000 -0.0000
v  -1.3013 0.0000 0.3487
v  -0.9099 0.7121 0.2438
v  -0.8158 0.7121 0.4710
v  -1.1667 0.0000 0.6736
v  -0.6661 0.7121 0.6661
v  -0.9526 0.0000 0.9526
v  -0.6736 0.0000 1.1667
v  -0.4710 0.7121 0.8158
v  -0.2438 0.7121 0.9099
v  -0.3487 0.0000 1.3013
v  -0.0000 0.7121 0.9420
v  -0.0000 0.0000 1.3472
v  0.3487 0.0000 1.3013
v  0.2438 0.7121 0.9099
v  0.4710 0.7121 0.8158
v  0.6736 0.0000 1.1667
v  0.6661 0.7121 0.6661
v  0.9526 0.0000 0.9526
v  1.1667 0.0000 0.6736
v  0.8158 0.7121 0.4710
v  0.9099 0.7121 0.2438
v  1.3013 0.0000 0.3487
v  0.6046 1.4242 -0.0000
v  0.5840 1.4242 -0.1565
v  0.5236 1.4242 -0.3023
v  0.4275 1.4242 -0.4275
v  0.3023 1.4242 -0.5236
v  0.1565 1.4242 -0.5840
v  0.0000 1.4242 -0.6046
v  -0.1565 1.4242 -0.5840
v  -0.3023 1.4242 -0.5236
v  -0.4275 1.4242 -0.4275
v  -0.5236 1.4242 -0.3023
v  -0.5840 1.4242 -0.1565
v  -0.6046 1.4242 -0.0000
v  -0.5840 1.4242 0.1565
v  -0.5236 1.4242 0.3023
v  -0.4275 1.4242 0.4275
v  -0.3023 1.4242 0.5236
v  -0.1565 1.4242 0.5840
v  -0.0000 1.4242 0.6046
v  0.1565 1.4242 0.5840
v  0.3023 1.4242 0.5236
v  0.4275 1.4242 0.4275
v  0.5236 1.4242 0.3023
v  0.5840 1.4242 0.1565
v  0.3238 2.1363 -0.0868
v  0.3352 2.1363 -0.0000
v  0.2903 2.1363 -0.1676
v  0.2370 2.1363 -0.2370
v  0.1676 2.1363 -0.2903
v  0.0868 2.1363 -0.3238
v  0.0000 2.1363 -0.3352
v  -0.0868 2.1363 -0.3238
v  -0.1676 2.1363 -0.2903
v  -0.2370 2.1363 -0.2370
v  -0.2903 2.1363 -0.1676
v  -0.3238 2.1363 -0.0868
v  -0.3352 2.1363 -0.0000
v  -0.3238 2.1363 0.0868
v  -0.2903 2.1363 0.1676
v  -0.2370 2.1363 0.2370
v  -0.1676 2.1363 0.2903
v  -0.0868 2.1363 0.3238
v  -0.0000 2.1363 0.3352
v  0.0868 2.1363 0.3238
v  0.1676 2.1363 0.2903
v  0.2370 2.1363 0.2370
v  0.2903 2.1363 0.1676
v  0.3238 2.1363 0.0868
v  -0.0132 3.1978 -0.0663
v  -0.0176 3.1977 -0.0658
v  0.0000 3.5605 -0.0000
v  0.0000 3.1977 -0.0681
v  -0.0258 3.1978 -0.0624
v  -0.0340 3.1977 -0.0590
v  -0.0376 3.1978 -0.0562
v  -0.0481 3.1977 -0.0481
v  -0.0562 3.1978 -0.0376
v  -0.0590 3.1977 -0.0340
v  -0.0624 3.1978 -0.0258
v  -0.0658 3.1977 -0.0176
v  -0.0663 3.1978 -0.0132
v  -0.0681 3.1977 -0.0000
v  -0.0663 3.1978 0.0132
v  -0.0658 3.1977 0.0176
v  -0.0624 3.1978 0.0258
v  -0.0590 3.1977 0.0340
v  -0.0562 3.1978 0.0376
v  -0.0481 3.1977 0.0481
v  -0.0376 3.1978 0.0562
v  -0.0340 3.1977 0.0590
v  -0.0258 3.1978 0.0624
v  -0.0176 3.1977 0.0658
v  -0.0132 3.1978 0.0663
v  -0.0000 3.1977 0.0681
v  0.0132 3.1978 0.0663
v  0.0176 3.1977 0.0658
v  0.0258 3.1978 0.0624
v  0.0340 3.1977 0.0590
v  0.0376 3.1978 0.0562
v  0.0481 3.1977 0.0481
v  0.0562 3.1978 0.0376
v  0.0590 3.1977 0.0340
v  0.0624 3.1978 0.0258
v  0.0658 3.1977 0.0176
v  0.0663 3.1978 0.0132
v  0.0681 3.1977 -0.0000
v  0.0663 3.1978 -0.0132
v  0.0658 3.1977 -0.0176
v  0.0624 3.1978 -0.0258
v  0.0590 3.1977 -0.0340
v  0.0562 3.1978 -0.0376
v  0.0481 3.1977 -0.0481
v  0.0376 3.1978 -0.0562
v  0.0340 3.1977 -0.0590
v  0.0258 3.1978 -0.0624
v  0.0176 3.1977 -0.0658
v  0.0132 3.1978 -0.0663
v  -0.0427 2.5416 -0.2149
v  0.0000 2.5425 -0.2202
v  -0.0570 2.5432 -0.2125
v  -0.1821 2.5416 -0.1217
v  -0.1557 2.5425 -0.1557
v  -0.1906 2.5432 -0.1100
v  -0.2149 2.5416 0.0427
v  -0.2202 2.5425 -0.0000
v  -0.2125 2.5432 0.0570
v  -0.1217 2.5416 0.1821
v  -0.1557 2.5425 0.1557
v  -0.1100 2.5432 0.1906
v  0.0427 2.5416 0.2149
v  -0.0000 2.5425 0.2202
v  0.0570 2.5432 0.2125
v  0.1821 2.5416 0.1217
v  0.1557 2.5425 0.1557
v  0.1906 2.5432 0.1100
v  0.2149 2.5416 -0.0427
v  0.2202 2.5425 -0.0000
v  0.2125 2.5432 -0.0570
v  0.1217 2.5416 -0.1821
v  0.1557 2.5425 -0.1557
v  0.1100 2.5432 -0.1906
v  0.2605 2.5756 -0.0000
v  0.2555 2.5756 0.0508
v  0.2149 2.5416 0.0427
v  0.2020 2.5413 0.0837
v  0.2407 2.5756 0.0997
v  0.2166 2.5756 0.1447
v  0.1842 2.5756 0.1842
v  0.1447 2.5756 0.2166
v  0.1217 2.5416 0.1821
v  0.0837 2.5413 0.2020
v  0.0997 2.5756 0.2407
v  0.0508 2.5756 0.2555
v  0.0000 2.5756 0.2605
v  -0.0508 2.5756 0.2555
v  -0.0427 2.5416 0.2149
v  -0.0837 2.5413 0.2020
v  -0.0997 2.5756 0.2407
v  -0.1447 2.5756 0.2166
v  -0.1842 2.5756 0.1842
v  -0.2166 2.5756 0.1447
v  -0.1821 2.5416 0.1217
v  -0.2020 2.5413 0.0837
v  -0.2407 2.5756 0.0997
v  -0.2555 2.5756 0.0508
v  -0.2605 2.5756 0.0000
v  -0.2555 2.5756 -0.0508
v  -0.2149 2.5416 -0.0427
v  -0.2020 2.5413 -0.0837
v  -0.2407 2.5756 -0.0997
v  -0.2166 2.5756 -0.1447
v  -0.1842 2.5756 -0.1842
v  -0.1447 2.5756 -0.2166
v  -0.1217 2.5416 -0.1821
v  -0.0837 2.5413 -0.2020
v  -0.0997 2.5756 -0.2407
v  -0.0508 2.5756 -0.2555
v  -0.0000 2.5756 -0.2605
v  0.0508 2.5756 -0.2555
v  0.0427 2.5416 -0.2149
v  0.0837 2.5413 -0.2020
v  0.0997 2.5756 -0.2407
v  0.1447 2.5756 -0.2166
v  0.1842 2.5756 -0.1842
v  0.2166 2.5756 -0.1447
v  0.1821 2.5416 -0.1217
v  0.2020 2.5413 -0.0837
v  0.2407 2.5756 -0.0997
v  0.2555 2.5756 -0.0508
v  0.3004 2.6314 -0.0598
v  0.2830 2.6314 -0.1172
v  0.3144 2.6951 -0.1302
v  0.3338 2.6951 -0.0664
v  0.3338 2.7642 -0.1383
v  0.3544 2.7642 -0.0705
v  0.3403 2.8361 -0.1410
v  0.3613 2.8361 -0.0719
v  0.3544 2.9079 -0.0705
v  0.3338 2.9079 -0.1383
v  0.3338 2.9770 -0.0664
v  0.3144 2.9770 -0.1302
v  0.3004 3.0407 -0.0598
v  0.2830 3.0407 -0.1172
v  0.2407 3.0965 -0.0997
v  0.2555 3.0965 -0.0508
v  0.2007 3.1424 -0.0399
v  0.1891 3.1424 -0.0783
v  0.1302 3.1764 -0.0539
v  0.1383 3.1764 -0.0275
v  0.0664 3.1974 -0.0275
v  0.0705 3.1974 -0.0140
v  0.0598 3.1974 -0.0399
v  0.0508 3.1974 -0.0508
v  0.0399 3.1974 -0.0598
v  0.0140 3.1974 -0.0705
v  -0.0000 3.1974 -0.0719
v  -0.0140 3.1974 -0.0705
v  -0.0399 3.1974 -0.0598
v  -0.0508 3.1974 -0.0508
v  -0.0598 3.1974 -0.0399
v  -0.0705 3.1974 -0.0140
v  -0.0719 3.1974 0.0000
v  -0.0705 3.1974 0.0140
v  -0.0598 3.1974 0.0399
v  -0.0508 3.1974 0.0508
v  -0.0399 3.1974 0.0598
v  -0.0140 3.1974 0.0705
v  0.0000 3.1974 0.0719
v  0.0140 3.1974 0.0705
v  0.0399 3.1974 0.0598
v  0.0508 3.1974 0.0508
v  0.0598 3.1974 0.0399
v  0.0705 3.1974 0.0140
v  0.0719 3.1974 0.0000
v  0.1410 3.1764 -0.0000
v  0.1383 3.1764 0.0275
v  0.2047 3.1424 -0.0000
v  0.2007 3.1424 0.0399
v  0.2605 3.0965 -0.0000
v  0.2555 3.0965 0.0508
v  0.3063 3.0407 -0.0000
v  0.3004 3.0407 0.0598
v  0.3403 2.9770 -0.0000
v  0.3338 2.9770 0.0664
v  0.3613 2.9079 -0.0000
v  0.3544 2.9079 0.0705
v  0.3684 2.8361 -0.0000
v  0.3613 2.8361 0.0719
v  0.3544 2.7642 0.0705
v  0.3613 2.7642 -0.0000
v  0.3403 2.6951 -0.0000
v  0.3338 2.6951 0.0664
v  0.3063 2.6314 -0.0000
v  0.3004 2.6314 0.0598
v  0.3144 2.6951 0.1302
v  0.2830 2.6314 0.1172
v  0.3338 2.7642 0.1383
v  0.3004 2.7642 0.2007
v  0.2830 2.6951 0.1891
v  0.3403 2.8361 0.1410
v  0.3063 2.8361 0.2047
v  0.3004 2.9079 0.2007
v  0.3338 2.9079 0.1383
v  0.3144 2.9770 0.1302
v  0.2830 2.9770 0.1891
v  0.2547 3.0407 0.1702
v  0.2830 3.0407 0.1172
v  0.2407 3.0965 0.0997
v  0.2166 3.0965 0.1447
v  0.1891 3.1424 0.0783
v  0.1702 3.1424 0.1137
v  0.1172 3.1764 0.0783
v  0.1302 3.1764 0.0539
v  0.0664 3.1974 0.0275
v  0.0997 3.1764 0.0997
v  0.1447 3.1424 0.1447
v  0.0783 3.1764 0.1172
v  0.1137 3.1424 0.1702
v  0.1842 3.0965 0.1842
v  0.1447 3.0965 0.2166
v  0.2166 3.0407 0.2166
v  0.1702 3.0407 0.2547
v  0.2407 2.9770 0.2407
v  0.1891 2.9770 0.2830
v  0.2555 2.9079 0.2555
v  0.2007 2.9079 0.3004
v  0.2605 2.8361 0.2605
v  0.2047 2.8361 0.3063
v  0.2007 2.7642 0.3004
v  0.2555 2.7642 0.2555
v  0.2407 2.6951 0.2407
v  0.2547 2.6314 0.1702
v  0.2166 2.6314 0.2166
v  0.1891 2.6951 0.2830
v  0.1702 2.6314 0.2547
v  0.1383 2.7642 0.3338
v  0.1302 2.6951 0.3144
v  0.1410 2.8361 0.3403
v  0.1383 2.9079 0.3338
v  0.0664 2.9770 0.3338
v  0.0705 2.9079 0.3544
v  0.1302 2.9770 0.3144
v  0.0598 3.0407 0.3004
v  0.1172 3.0407 0.2830
v  0.0997 3.0965 0.2407
v  0.0508 3.0965 0.2555
v  0.0399 3.1424 0.2007
v  0.0783 3.1424 0.1891
v  0.0275 3.1764 0.1383
v  0.0539 3.1764 0.1302
v  0.0275 3.1974 0.0664
v  0.0000 3.1764 0.1410
v  0.0000 3.1424 0.2047
v  -0.0275 3.1764 0.1383
v  -0.0399 3.1424 0.2007
v  0.0000 3.0965 0.2605
v  -0.0508 3.0965 0.2555
v  0.0000 3.0407 0.3063
v  -0.0598 3.0407 0.3004
v  0.0000 2.9770 0.3403
v  -0.0664 2.9770 0.3338
v  0.0000 2.9079 0.3613
v  0.0000 2.8361 0.3684
v  0.0719 2.8361 0.3613
v  0.0705 2.7642 0.3544
v  0.0000 2.7642 0.3613
v  0.0664 2.6951 0.3338
v  0.0598 2.6314 0.3004
v  0.1172 2.6314 0.2830
v  0.0000 2.6951 0.3403
v  0.0000 2.6314 0.3063
v  -0.0705 2.7642 0.3544
v  -0.0664 2.6951 0.3338
v  -0.0719 2.8361 0.3613
v  -0.0705 2.9079 0.3544
v  -0.1302 2.9770 0.3144
v  -0.1383 2.9079 0.3338
v  -0.1172 3.0407 0.2830
v  -0.1447 3.0965 0.2166
v  -0.1702 3.0407 0.2547
v  -0.0997 3.0965 0.2407
v  -0.0783 3.1424 0.1891
v  -0.1137 3.1424 0.1702
v  -0.0783 3.1764 0.1172
v  -0.0539 3.1764 0.1302
v  -0.0275 3.1974 0.0664
v  -0.0997 3.1764 0.0997
v  -0.1447 3.1424 0.1447
v  -0.1172 3.1764 0.0783
v  -0.1702 3.1424 0.1137
v  -0.1842 3.0965 0.1842
v  -0.2166 3.0965 0.1447
v  -0.2166 3.0407 0.2166
v  -0.1891 2.9770 0.2830
v  -0.2407 2.9770 0.2407
v  -0.2007 2.9079 0.3004
v  -0.2047 2.8361 0.3063
v  -0.1410 2.8361 0.3403
v  -0.2007 2.7642 0.3004
v  -0.1383 2.7642 0.3338
v  -0.1302 2.6951 0.3144
v  -0.1172 2.6314 0.2830
v  -0.0598 2.6314 0.3004
v  -0.1891 2.6951 0.2830
v  -0.1702 2.6314 0.2547
v  -0.2555 2.7642 0.2555
v  -0.2407 2.6951 0.2407
v  -0.2605 2.8361 0.2605
v  -0.2555 2.9079 0.2555
v  -0.3004 2.9079 0.2007
v  -0.2830 2.9770 0.1891
v  -0.2547 3.0407 0.1702
v  -0.2830 3.0407 0.1172
v  -0.2407 3.0965 0.0997
v  -0.1891 3.1424 0.0783
v  -0.1383 3.1764 0.0275
v  -0.2007 3.1424 0.0399
v  -0.1302 3.1764 0.0539
v  -0.0664 3.1974 0.0275
v  -0.1410 3.1764 0.0000
v  -0.2047 3.1424 0.0000
v  -0.2605 3.0965 0.0000
v  -0.2555 3.0965 0.0508
v  -0.3004 3.0407 0.0598
v  -0.3144 2.9770 0.1302
v  -0.3338 2.9770 0.0664
v  -0.3338 2.9079 0.1383
v  -0.3063 2.8361 0.2047
v  -0.3403 2.8361 0.1410
v  -0.3338 2.7642 0.1383
v  -0.3004 2.7642 0.2007
v  -0.2830 2.6951 0.1891
v  -0.2166 2.6314 0.2166
v  -0.2547 2.6314 0.1702
v  -0.3144 2.6951 0.1302
v  -0.2830 2.6314 0.1172
v  -0.3544 2.7642 0.0705
v  -0.3338 2.6951 0.0664
v  -0.3613 2.8361 0.0719
v  -0.3544 2.9079 0.0705
v  -0.3613 2.9079 0.0000
v  -0.3403 2.9770 0.0000
v  -0.3063 3.0407 0.0000
v  -0.2555 3.0965 -0.0508
v  -0.3004 3.0407 -0.0598
v  -0.2007 3.1424 -0.0399
v  -0.1302 3.1764 -0.0539
v  -0.1891 3.1424 -0.0783
v  -0.1383 3.1764 -0.0275
v  -0.0664 3.1974 -0.0275
v  -0.1172 3.1764 -0.0783
v  -0.1702 3.1424 -0.1137
v  -0.2166 3.0965 -0.1447
v  -0.2407 3.0965 -0.0997
v  -0.2830 3.0407 -0.1172
v  -0.3338 2.9770 -0.0664
v  -0.3144 2.9770 -0.1302
v  -0.3544 2.9079 -0.0705
v  -0.3613 2.8361 -0.0719
v  -0.3684 2.8361 0.0000
v  -0.3544 2.7642 -0.0705
v  -0.3613 2.7642 0.0000
v  -0.3403 2.6951 0.0000
v  -0.3063 2.6314 0.0000
v  -0.3004 2.6314 0.0598
v  -0.3338 2.6951 -0.0664
v  -0.3004 2.6314 -0.0598
v  -0.3338 2.7642 -0.1383
v  -0.3144 2.6951 -0.1302
v  -0.3403 2.8361 -0.1410
v  -0.3338 2.9079 -0.1383
v  -0.3004 2.9079 -0.2007
v  -0.2830 2.9770 -0.1891
v  -0.2547 3.0407 -0.1702
v  -0.2166 3.0407 -0.2166
v  -0.1842 3.0965 -0.1842
v  -0.1447 3.1424 -0.1447
v  -0.1137 3.1424 -0.1702
v  -0.0997 3.1764 -0.0997
v  -0.0783 3.1764 -0.1172
v  -0.0539 3.1764 -0.1302
v  -0.0275 3.1974 -0.0664
v  -0.0783 3.1424 -0.1891
v  -0.1447 3.0965 -0.2166
v  -0.0997 3.0965 -0.2407
v  -0.1702 3.0407 -0.2547
v  -0.2407 2.9770 -0.2407
v  -0.1891 2.9770 -0.2830
v  -0.2555 2.9079 -0.2555
v  -0.2605 2.8361 -0.2605
v  -0.3063 2.8361 -0.2047
v  -0.3004 2.7642 -0.2007
v  -0.2555 2.7642 -0.2555
v  -0.2830 2.6951 -0.1891
v  -0.2547 2.6314 -0.1702
v  -0.2830 2.6314 -0.1172
v  -0.2407 2.6951 -0.2407
v  -0.2166 2.6314 -0.2166
v  -0.2007 2.7642 -0.3004
v  -0.1891 2.6951 -0.2830
v  -0.2047 2.8361 -0.3063
v  -0.2007 2.9079 -0.3004
v  -0.1383 2.9079 -0.3338
v  -0.1302 2.9770 -0.3144
v  -0.1172 3.0407 -0.2830
v  -0.0598 3.0407 -0.3004
v  -0.0508 3.0965 -0.2555
v  -0.0399 3.1424 -0.2007
v  -0.0000 3.1424 -0.2047
v  -0.0275 3.1764 -0.1383
v  -0.0000 3.1764 -0.1410
v  0.0275 3.1764 -0.1383
v  0.0399 3.1424 -0.2007
v  -0.0000 3.0965 -0.2605
v  0.0508 3.0965 -0.2555
v  -0.0000 3.0407 -0.3063
v  -0.0664 2.9770 -0.3338
v  -0.0000 2.9770 -0.3403
v  -0.0705 2.9079 -0.3544
v  -0.0719 2.8361 -0.3613
v  -0.1410 2.8361 -0.3403
v  -0.1383 2.7642 -0.3338
v  -0.0705 2.7642 -0.3544
v  -0.1302 2.6951 -0.3144
v  -0.1702 2.6314 -0.2547
v  -0.1172 2.6314 -0.2830
v  -0.0664 2.6951 -0.3338
v  -0.0598 2.6314 -0.3004
v  -0.0000 2.7642 -0.3613
v  -0.0000 2.6951 -0.3403
v  -0.0000 2.8361 -0.3684
v  -0.0000 2.9079 -0.3613
v  0.0664 2.9770 -0.3338
v  0.0705 2.9079 -0.3544
v  0.0598 3.0407 -0.3004
v  0.0997 3.0965 -0.2407
v  0.1172 3.0407 -0.2830
v  0.0783 3.1424 -0.1891
v  0.0783 3.1764 -0.1172
v  0.1137 3.1424 -0.1702
v  0.0539 3.1764 -0.1302
v  0.0275 3.1974 -0.0664
v  0.0997 3.1764 -0.0997
v  0.1447 3.1424 -0.1447
v  0.1447 3.0965 -0.2166
v  0.1842 3.0965 -0.1842
v  0.1702 3.0407 -0.2547
v  0.1302 2.9770 -0.3144
v  0.1891 2.9770 -0.2830
v  0.1383 2.9079 -0.3338
v  0.0719 2.8361 -0.3613
v  0.1410 2.8361 -0.3403
v  0.1383 2.7642 -0.3338
v  0.0705 2.7642 -0.3544
v  0.0664 2.6951 -0.3338
v  0.0598 2.6314 -0.3004
v  -0.0000 2.6314 -0.3063
v  0.1302 2.6951 -0.3144
v  0.1172 2.6314 -0.2830
v  0.2007 2.7642 -0.3004
v  0.1891 2.6951 -0.2830
v  0.2047 2.8361 -0.3063
v  0.2007 2.9079 -0.3004
v  0.2407 2.9770 -0.2407
v  0.2555 2.9079 -0.2555
v  0.2166 3.0407 -0.2166
v  0.2166 3.0965 -0.1447
v  0.2547 3.0407 -0.1702
v  0.1702 3.1424 -0.1137
v  0.2830 2.9770 -0.1891
v  0.3004 2.9079 -0.2007
v  0.2605 2.8361 -0.2605
v  0.3063 2.8361 -0.2047
v  0.3004 2.7642 -0.2007
v  0.2555 2.7642 -0.2555
v  0.2407 2.6951 -0.2407
v  0.1702 2.6314 -0.2547
v  0.2166 2.6314 -0.2166
v  0.2830 2.6951 -0.1891
v  0.2547 2.6314 -0.1702
v  0.1172 3.1764 -0.0783
v  -0.1100 2.5432 -0.1906
v  -0.2125 2.5432 -0.0570
v  -0.1906 2.5432 0.1100
v  -0.0570 2.5432 0.2125
v  0.1100 2.5432 0.1906
v  0.2125 2.5432 0.0570
v  0.1906 2.5432 -0.1100
v  0.0570 2.5432 -0.2125
# 577 vertices

vn 0.8864 0.4630 0.0000
vn 0.8691 0.4946 0.0000
vn 0.8395 0.4946 -0.2249
vn 0.8562 0.4630 -0.2294
vn 0.7527 0.4946 -0.4346
vn 0.7676 0.4630 -0.4432
vn 0.6268 0.4630 -0.6268
vn 0.6146 0.4946 -0.6146
vn 0.4432 0.4630 -0.7676
vn 0.4346 0.4946 -0.7527
vn 0.2249 0.4946 -0.8395
vn 0.2294 0.4630 -0.8562
vn 0.0000 0.4630 -0.8864
vn 0.0000 0.4946 -0.8691
vn -0.2249 0.4946 -0.8395
vn -0.2294 0.4630 -0.8562
vn -0.4432 0.4630 -0.7676
vn -0.4346 0.4946 -0.7527
vn -0.6146 0.4946 -0.6146
vn -0.6268 0.4630 -0.6268
vn -0.7676 0.4630 -0.4432
vn -0.7527 0.4946 -0.4346
vn -0.8395 0.4946 -0.2249
vn -0.8562 0.4630 -0.2294
vn -0.8864 0.4630 -0.0000
vn -0.8691 0.4946 -0.0000
vn -0.8395 0.4946 0.2249
vn -0.8562 0.4630 0.2294
vn -0.7676 0.4630 0.4432
vn -0.7527 0.4946 0.4346
vn -0.6268 0.4630 0.6268
vn -0.6146 0.4946 0.6146
vn -0.4346 0.4946 0.7527
vn -0.4432 0.4630 0.7676
vn -0.2294 0.4630 0.8562
vn -0.2249 0.4946 0.8395
vn -0.0000 0.4630 0.8864
vn -0.0000 0.4946 0.8691
vn 0.2249 0.4946 0.8395
vn 0.2294 0.4630 0.8562
vn 0.4432 0.4630 0.7676
vn 0.4346 0.4946 0.7527
vn 0.6268 0.4630 0.6268
vn 0.6146 0.4946 0.6146
vn 0.7527 0.4946 0.4346
vn 0.7676 0.4630 0.4432
vn 0.8562 0.4630 0.2294
vn 0.8395 0.4946 0.2249
vn 0.9197 0.3925 0.0000
vn 0.8884 0.3925 -0.2380
vn 0.7965 0.3925 -0.4599
vn 0.6504 0.3925 -0.6504
vn 0.4599 0.3925 -0.7965
vn 0.2380 0.3925 -0.8884
vn 0.0000 0.3925 -0.9197
vn -0.2380 0.3925 -0.8884
vn -0.4599 0.3925 -0.7965
vn -0.6504 0.3925 -0.6504
vn -0.7965 0.3925 -0.4599
vn -0.8884 0.3925 -0.2380
vn -0.9197 0.3925 -0.0000
vn -0.8884 0.3925 0.2380
vn -0.7965 0.3925 0.4599
vn -0.6504 0.3925 0.6504
vn -0.4599 0.3925 0.7965
vn -0.2380 0.3925 0.8884
vn -0.0000 0.3925 0.9197
vn 0.2380 0.3925 0.8884
vn 0.4599 0.3925 0.7965
vn 0.6504 0.3925 0.6504
vn 0.7965 0.3925 0.4599
vn 0.8884 0.3925 0.2380
vn 0.9169 0.3145 -0.2457
vn 0.9493 0.3145 0.0000
vn 0.8221 0.3145 -0.4746
vn 0.6712 0.3145 -0.6712
vn 0.4746 0.3145 -0.8221
vn 0.2457 0.3145 -0.9169
vn -0.0000 0.3145 -0.9493
vn -0.2457 0.3145 -0.9169
vn -0.4746 0.3145 -0.8221
vn -0.6712 0.3145 -0.6712
vn -0.8221 0.3145 -0.4746
vn -0.9169 0.3145 -0.2457
vn -0.9493 0.3145 -0.0000
vn -0.9169 0.3145 0.2457
vn -0.8221 0.3145 0.4746
vn -0.6712 0.3145 0.6712
vn -0.4746 0.3145 0.8221
vn -0.2457 0.3145 0.9169
vn -0.0000 0.3145 0.9493
vn 0.2457 0.3145 0.9169
vn 0.4746 0.3145 0.8221
vn 0.6712 0.3145 0.6712
vn 0.8221 0.3145 0.4746
vn 0.9169 0.3145 0.2457
vn -0.1283 0.1829 -0.9747
vn -0.2546 0.1845 -0.9493
vn 0.0000 1.0000 -0.0000
vn -0.0000 0.1845 -0.9828
vn -0.3762 0.1829 -0.9083
vn -0.4912 0.1845 -0.8513
vn -0.5985 0.1829 -0.7800
vn -0.6950 0.1845 -0.6950
vn -0.7800 0.1829 -0.5985
vn -0.8513 0.1845 -0.4912
vn -0.9083 0.1829 -0.3762
vn -0.9493 0.1845 -0.2546
vn -0.9747 0.1829 -0.1283
vn -0.9828 0.1845 -0.0000
vn -0.9747 0.1829 0.1283
vn -0.9493 0.1845 0.2546
vn -0.9083 0.1829 0.3762
vn -0.8513 0.1845 0.4912
vn -0.7800 0.1829 0.5985
vn -0.6950 0.1845 0.6950
vn -0.5985 0.1829 0.7800
vn -0.4912 0.1845 0.8513
vn -0.3762 0.1829 0.9083
vn -0.2546 0.1845 0.9493
vn -0.1283 0.1829 0.9747
vn -0.0000 0.1845 0.9828
vn 0.1283 0.1829 0.9747
vn 0.2546 0.1845 0.9493
vn 0.3762 0.1829 0.9083
vn 0.4912 0.1845 0.8513
vn 0.5985 0.1829 0.7800
vn 0.6950 0.1845 0.6950
vn 0.7800 0.1829 0.5985
vn 0.8513 0.1845 0.4912
vn 0.9083 0.1829 0.3762
vn 0.9493 0.1845 0.2546
vn 0.9747 0.1829 0.1283
vn 0.9828 0.1845 0.0000
vn 0.9747 0.1829 -0.1283
vn 0.9493 0.1845 -0.2546
vn 0.9083 0.1829 -0.3762
vn 0.8513 0.1845 -0.4912
vn 0.7800 0.1829 -0.5985
vn 0.6950 0.1845 -0.6950
vn 0.5985 0.1829 -0.7800
vn 0.4912 0.1845 -0.8513
vn 0.3762 0.1829 -0.9083
vn 0.2546 0.1845 -0.9493
vn 0.1283 0.1829 -0.9747
vn -0.1257 0.2702 -0.9546
vn -0.0000 0.2723 -0.9622
vn -0.2509 0.2723 -0.9289
vn -0.7639 0.2702 -0.5861
vn -0.6804 0.2723 -0.6804
vn -0.8342 0.2723 -0.4795
vn -0.9546 0.2702 0.1257
vn -0.9622 0.2723 -0.0000
vn -0.9289 0.2723 0.2509
vn -0.5861 0.2702 0.7638
vn -0.6804 0.2723 0.6804
vn -0.4795 0.2723 0.8342
vn 0.1257 0.2702 0.9546
vn -0.0000 0.2723 0.9622
vn 0.2509 0.2723 0.9289
vn 0.7638 0.2702 0.5861
vn 0.6804 0.2723 0.6804
vn 0.8342 0.2723 0.4795
vn 0.9546 0.2702 -0.1257
vn 0.9622 0.2723 0.0000
vn 0.9289 0.2723 -0.2509
vn 0.5861 0.2702 -0.7638
vn 0.6804 0.2723 -0.6804
vn 0.4795 0.2723 -0.8342
vn 0.6344 -0.7730 -0.0000
vn 0.7101 -0.7041 -0.0000
vn 0.6965 -0.7041 0.1385
vn 0.6227 -0.7730 0.1210
vn 0.5611 -0.7715 0.2999
vn 0.5861 -0.7730 0.2428
vn 0.6561 -0.7041 0.2718
vn 0.5905 -0.7041 0.3945
vn 0.5259 -0.7730 0.3548
vn 0.5021 -0.7041 0.5021
vn 0.4486 -0.7730 0.4486
vn 0.3945 -0.7041 0.5905
vn 0.3548 -0.7730 0.5259
vn 0.1847 -0.7715 0.6088
vn 0.2428 -0.7730 0.5861
vn 0.2718 -0.7041 0.6561
vn 0.1385 -0.7041 0.6965
vn 0.1210 -0.7730 0.6227
vn 0.0000 -0.7041 0.7101
vn -0.0000 -0.7730 0.6344
vn -0.1385 -0.7041 0.6965
vn -0.1210 -0.7730 0.6227
vn -0.2999 -0.7715 0.5611
vn -0.2428 -0.7730 0.5861
vn -0.2718 -0.7041 0.6561
vn -0.3945 -0.7041 0.5905
vn -0.3548 -0.7730 0.5259
vn -0.5021 -0.7041 0.5021
vn -0.4486 -0.7730 0.4486
vn -0.5905 -0.7041 0.3945
vn -0.5259 -0.7730 0.3548
vn -0.6088 -0.7715 0.1847
vn -0.5861 -0.7730 0.2428
vn -0.6561 -0.7041 0.2718
vn -0.6965 -0.7041 0.1385
vn -0.6227 -0.7730 0.1210
vn -0.7101 -0.7041 0.0000
vn -0.6344 -0.7730 -0.0000
vn -0.6965 -0.7041 -0.1385
vn -0.6227 -0.7730 -0.1210
vn -0.5611 -0.7715 -0.2999
vn -0.5861 -0.7730 -0.2428
vn -0.6561 -0.7041 -0.2718
vn -0.5905 -0.7041 -0.3945
vn -0.5259 -0.7730 -0.3548
vn -0.5021 -0.7041 -0.5021
vn -0.4486 -0.7730 -0.4486
vn -0.3945 -0.7041 -0.5905
vn -0.3548 -0.7730 -0.5259
vn -0.1847 -0.7715 -0.6088
vn -0.2428 -0.7730 -0.5861
vn -0.2718 -0.7041 -0.6561
vn -0.1385 -0.7041 -0.6965
vn -0.1210 -0.7730 -0.6227
vn -0.0000 -0.7041 -0.7101
vn -0.0000 -0.7730 -0.6344
vn 0.1385 -0.7041 -0.6965
vn 0.1210 -0.7730 -0.6227
vn 0.2999 -0.7715 -0.5611
vn 0.2428 -0.7730 -0.5861
vn 0.2718 -0.7041 -0.6561
vn 0.3945 -0.7041 -0.5905
vn 0.3548 -0.7730 -0.5259
vn 0.5021 -0.7041 -0.5021
vn 0.4486 -0.7730 -0.4486
vn 0.5905 -0.7041 -0.3945
vn 0.5259 -0.7730 -0.3548
vn 0.6088 -0.7715 -0.1847
vn 0.5861 -0.7730 -0.2428
vn 0.6561 -0.7041 -0.2718
vn 0.6965 -0.7041 -0.1385
vn 0.6227 -0.7730 -0.1210
vn 0.8173 -0.5528 -0.1626
vn 0.7699 -0.5528 -0.3189
vn 0.8544 -0.3805 -0.3539
vn 0.9070 -0.3805 -0.1804
vn 0.9063 -0.1939 -0.3754
vn 0.9622 -0.1939 -0.1914
vn 0.9239 0.0000 -0.3827
vn 0.9808 0.0000 -0.1951
vn 0.9622 0.1939 -0.1914
vn 0.9063 0.1939 -0.3754
vn 0.9070 0.3805 -0.1804
vn 0.8544 0.3805 -0.3539
vn 0.8173 0.5528 -0.1626
vn 0.7699 0.5528 -0.3189
vn 0.6561 0.7041 -0.2718
vn 0.6965 0.7041 -0.1385
vn 0.5490 0.8286 -0.1092
vn 0.5172 0.8286 -0.2142
vn 0.3584 0.9217 -0.1484
vn 0.3804 0.9217 -0.0757
vn 0.1857 0.9796 -0.0769
vn 0.1971 0.9796 -0.0392
vn 0.0693 0.9952 -0.0693
vn 0.0813 0.9952 -0.0548
vn 0.1671 0.9796 -0.1117
vn 0.1421 0.9796 -0.1421
vn 0.1117 0.9796 -0.1671
vn 0.0548 0.9952 -0.0813
vn -0.0000 0.9952 -0.0980
vn 0.0187 0.9952 -0.0962
vn 0.0392 0.9796 -0.1971
vn -0.0000 0.9796 -0.2010
vn -0.0392 0.9796 -0.1971
vn -0.0187 0.9952 -0.0962
vn -0.0693 0.9952 -0.0693
vn -0.0548 0.9952 -0.0813
vn -0.1117 0.9796 -0.1671
vn -0.1421 0.9796 -0.1421
vn -0.1671 0.9796 -0.1117
vn -0.0813 0.9952 -0.0548
vn -0.0980 0.9952 -0.0000
vn -0.0962 0.9952 -0.0187
vn -0.1971 0.9796 -0.0392
vn -0.2010 0.9796 0.0000
vn -0.1971 0.9796 0.0392
vn -0.0962 0.9952 0.0187
vn -0.0693 0.9952 0.0693
vn -0.0813 0.9952 0.0548
vn -0.1671 0.9796 0.1116
vn -0.1421 0.9796 0.1421
vn -0.1116 0.9796 0.1671
vn -0.0548 0.9952 0.0813
vn -0.0000 0.9952 0.0980
vn -0.0187 0.9952 0.0962
vn -0.0392 0.9796 0.1971
vn 0.0000 0.9796 0.2010
vn 0.0392 0.9796 0.1971
vn 0.0187 0.9952 0.0962
vn 0.0693 0.9952 0.0693
vn 0.0548 0.9952 0.0813
vn 0.1116 0.9796 0.1671
vn 0.1421 0.9796 0.1421
vn 0.1671 0.9796 0.1116
vn 0.0813 0.9952 0.0548
vn 0.0980 0.9952 -0.0000
vn 0.0962 0.9952 0.0187
vn 0.1971 0.9796 0.0392
vn 0.2010 0.9796 -0.0000
vn 0.3879 0.9217 -0.0000
vn 0.3804 0.9217 0.0757
vn 0.5598 0.8286 -0.0000
vn 0.5490 0.8286 0.1092
vn 0.7101 0.7041 -0.0000
vn 0.6965 0.7041 0.1385
vn 0.8333 0.5528 -0.0000
vn 0.8173 0.5528 0.1626
vn 0.9248 0.3805 -0.0000
vn 0.9070 0.3805 0.1804
vn 0.9810 0.1939 -0.0000
vn 0.9622 0.1939 0.1914
vn 1.0000 0.0000 -0.0000
vn 0.9808 0.0000 0.1951
vn 0.9622 -0.1939 0.1914
vn 0.9810 -0.1939 -0.0000
vn 0.9248 -0.3805 -0.0000
vn 0.9070 -0.3805 0.1804
vn 0.8333 -0.5528 -0.0000
vn 0.8173 -0.5528 0.1626
vn 0.8544 -0.3805 0.3539
vn 0.7699 -0.5528 0.3189
vn 0.9063 -0.1939 0.3754
vn 0.8157 -0.1939 0.5450
vn 0.7689 -0.3805 0.5138
vn 0.9239 0.0000 0.3827
vn 0.8315 0.0000 0.5556
vn 0.8157 0.1939 0.5450
vn 0.9063 0.1939 0.3754
vn 0.8544 0.3805 0.3539
vn 0.7689 0.3805 0.5138
vn 0.6929 0.5528 0.4630
vn 0.7699 0.5528 0.3189
vn 0.6561 0.7041 0.2718
vn 0.5905 0.7041 0.3945
vn 0.5172 0.8286 0.2142
vn 0.4654 0.8286 0.3110
vn 0.3225 0.9217 0.2155
vn 0.3584 0.9217 0.1484
vn 0.1857 0.9796 0.0769
vn 0.2743 0.9217 0.2743
vn 0.3958 0.8286 0.3958
vn 0.2155 0.9217 0.3225
vn 0.3110 0.8286 0.4654
vn 0.5021 0.7041 0.5021
vn 0.3945 0.7041 0.5905
vn 0.5893 0.5528 0.5893
vn 0.4630 0.5528 0.6929
vn 0.6539 0.3805 0.6539
vn 0.5138 0.3805 0.7689
vn 0.6937 0.1939 0.6937
vn 0.5450 0.1939 0.8157
vn 0.7071 0.0000 0.7071
vn 0.5556 0.0000 0.8315
vn 0.5450 -0.1939 0.8157
vn 0.6937 -0.1939 0.6937
vn 0.6539 -0.3805 0.6539
vn 0.6929 -0.5528 0.4630
vn 0.5893 -0.5528 0.5893
vn 0.5138 -0.3805 0.7689
vn 0.4630 -0.5528 0.6929
vn 0.3754 -0.1939 0.9063
vn 0.3539 -0.3805 0.8544
vn 0.3827 0.0000 0.9239
vn 0.3754 0.1939 0.9063
vn 0.1804 0.3805 0.9070
vn 0.1914 0.1939 0.9622
vn 0.3539 0.3805 0.8544
vn 0.1626 0.5528 0.8173
vn 0.3189 0.5528 0.7699
vn 0.2718 0.7041 0.6561
vn 0.1385 0.7041 0.6965
vn 0.1092 0.8286 0.5490
vn 0.2142 0.8286 0.5172
vn 0.0757 0.9217 0.3804
vn 0.1484 0.9217 0.3584
vn 0.0769 0.9796 0.1857
vn 0.0000 0.9217 0.3879
vn 0.0000 0.8286 0.5598
vn -0.0757 0.9217 0.3804
vn -0.1092 0.8286 0.5490
vn 0.0000 0.7041 0.7101
vn -0.1385 0.7041 0.6965
vn 0.0000 0.5528 0.8333
vn -0.1626 0.5528 0.8173
vn 0.0000 0.3805 0.9248
vn -0.1804 0.3805 0.9070
vn 0.0000 0.1939 0.9810
vn 0.0000 0.0000 1.0000
vn 0.1951 0.0000 0.9808
vn 0.1914 -0.1939 0.9622
vn 0.0000 -0.1939 0.9810
vn 0.1804 -0.3805 0.9070
vn 0.1626 -0.5528 0.8173
vn 0.3189 -0.5528 0.7699
vn 0.0000 -0.3805 0.9248
vn 0.0000 -0.5528 0.8333
vn -0.1914 -0.1939 0.9622
vn -0.1804 -0.3805 0.9070
vn -0.1951 0.0000 0.9808
vn -0.1914 0.1939 0.9622
vn -0.3539 0.3805 0.8544
vn -0.3754 0.1939 0.9063
vn -0.3189 0.5528 0.7699
vn -0.3945 0.7041 0.5905
vn -0.4630 0.5528 0.6929
vn -0.2718 0.7041 0.6561
vn -0.2142 0.8286 0.5172
vn -0.3110 0.8286 0.4654
vn -0.2155 0.9217 0.3225
vn -0.1484 0.9217 0.3584
vn -0.0769 0.9796 0.1857
vn -0.2743 0.9217 0.2743
vn -0.3958 0.8286 0.3958
vn -0.3225 0.9217 0.2155
vn -0.4654 0.8286 0.3110
vn -0.5021 0.7041 0.5021
vn -0.5905 0.7041 0.3945
vn -0.5893 0.5528 0.5893
vn -0.5138 0.3805 0.7689
vn -0.6539 0.3805 0.6539
vn -0.5450 0.1939 0.8157
vn -0.5556 0.0000 0.8315
vn -0.3827 0.0000 0.9239
vn -0.5450 -0.1939 0.8157
vn -0.3754 -0.1939 0.9063
vn -0.3539 -0.3805 0.8544
vn -0.3189 -0.5528 0.7699
vn -0.1626 -0.5528 0.8173
vn -0.5138 -0.3805 0.7689
vn -0.4630 -0.5528 0.6929
vn -0.6937 -0.1939 0.6937
vn -0.6539 -0.3805 0.6539
vn -0.7071 0.0000 0.7071
vn -0.6937 0.1939 0.6937
vn -0.8157 0.1939 0.5450
vn -0.7689 0.3805 0.5138
vn -0.6929 0.5528 0.4630
vn -0.7699 0.5528 0.3189
vn -0.6561 0.7041 0.2718
vn -0.5172 0.8286 0.2142
vn -0.3804 0.9217 0.0757
vn -0.5490 0.8286 0.1092
vn -0.3584 0.9217 0.1484
vn -0.1857 0.9796 0.0769
vn -0.3879 0.9217 0.0000
vn -0.5598 0.8286 0.0000
vn -0.7101 0.7041 0.0000
vn -0.6965 0.7041 0.1385
vn -0.8173 0.5528 0.1626
vn -0.8544 0.3805 0.3539
vn -0.9070 0.3805 0.1804
vn -0.9063 0.1939 0.3754
vn -0.8315 0.0000 0.5556
vn -0.9239 0.0000 0.3827
vn -0.9063 -0.1939 0.3754
vn -0.8157 -0.1939 0.5450
vn -0.7689 -0.3805 0.5138
vn -0.5893 -0.5528 0.5893
vn -0.6929 -0.5528 0.4630
vn -0.8544 -0.3805 0.3539
vn -0.7699 -0.5528 0.3189
vn -0.9622 -0.1939 0.1914
vn -0.9070 -0.3805 0.1804
vn -0.9808 0.0000 0.1951
vn -0.9622 0.1939 0.1914
vn -0.9810 0.1939 0.0000
vn -0.9248 0.3805 0.0000
vn -0.8333 0.5528 0.0000
vn -0.6965 0.7041 -0.1385
vn -0.8173 0.5528 -0.1626
vn -0.5490 0.8286 -0.1092
vn -0.3584 0.9217 -0.1484
vn -0.5172 0.8286 -0.2142
vn -0.3804 0.9217 -0.0757
vn -0.1857 0.9796 -0.0769
vn -0.3225 0.9217 -0.2155
vn -0.4654 0.8286 -0.3110
vn -0.5905 0.7041 -0.3945
vn -0.6561 0.7041 -0.2718
vn -0.7699 0.5528 -0.3189
vn -0.9070 0.3805 -0.1804
vn -0.8544 0.3805 -0.3539
vn -0.9622 0.1939 -0.1914
vn -0.9808 0.0000 -0.1951
vn -1.0000 0.0000 0.0000
vn -0.9622 -0.1939 -0.1914
vn -0.9810 -0.1939 0.0000
vn -0.9248 -0.3805 0.0000
vn -0.8333 -0.5528 0.0000
vn -0.8173 -0.5528 0.1626
vn -0.9070 -0.3805 -0.1804
vn -0.8173 -0.5528 -0.1626
vn -0.9063 -0.1939 -0.3754
vn -0.8544 -0.3805 -0.3539
vn -0.9239 0.0000 -0.3827
vn -0.9063 0.1939 -0.3754
vn -0.8157 0.1939 -0.5450
vn -0.7689 0.3805 -0.5138
vn -0.6929 0.5528 -0.4630
vn -0.5893 0.5528 -0.5893
vn -0.5021 0.7041 -0.5021
vn -0.3958 0.8286 -0.3958
vn -0.3110 0.8286 -0.4654
vn -0.2743 0.9217 -0.2743
vn -0.2155 0.9217 -0.3225
vn -0.1484 0.9217 -0.3584
vn -0.0769 0.9796 -0.1857
vn -0.2142 0.8286 -0.5172
vn -0.3945 0.7041 -0.5905
vn -0.2718 0.7041 -0.6561
vn -0.4630 0.5528 -0.6929
vn -0.6539 0.3805 -0.6539
vn -0.5138 0.3805 -0.7689
vn -0.6937 0.1939 -0.6937
vn -0.7071 0.0000 -0.7071
vn -0.8315 0.0000 -0.5556
vn -0.8157 -0.1939 -0.5450
vn -0.6937 -0.1939 -0.6937
vn -0.7689 -0.3805 -0.5138
vn -0.6929 -0.5528 -0.4630
vn -0.7699 -0.5528 -0.3189
vn -0.6539 -0.3805 -0.6539
vn -0.5893 -0.5528 -0.5893
vn -0.5450 -0.1939 -0.8157
vn -0.5138 -0.3805 -0.7689
vn -0.5556 0.0000 -0.8315
vn -0.5450 0.1939 -0.8157
vn -0.3754 0.1939 -0.9063
vn -0.3539 0.3805 -0.8544
vn -0.3189 0.5528 -0.7699
vn -0.1626 0.5528 -0.8173
vn -0.1385 0.7041 -0.6965
vn -0.1092 0.8286 -0.5490
vn -0.0000 0.8286 -0.5598
vn -0.0757 0.9217 -0.3804
vn -0.0000 0.9217 -0.3879
vn 0.0757 0.9217 -0.3804
vn 0.1092 0.8286 -0.5490
vn -0.0000 0.7041 -0.7101
vn 0.1385 0.7041 -0.6965
vn -0.0000 0.5528 -0.8333
vn -0.1804 0.3805 -0.9070
vn -0.0000 0.3805 -0.9248
vn -0.1914 0.1939 -0.9622
vn -0.1951 0.0000 -0.9808
vn -0.3827 0.0000 -0.9239
vn -0.3754 -0.1939 -0.9063
vn -0.1914 -0.1939 -0.9622
vn -0.3539 -0.3805 -0.8544
vn -0.4630 -0.5528 -0.6929
vn -0.3189 -0.5528 -0.7699
vn -0.1804 -0.3805 -0.9070
vn -0.1626 -0.5528 -0.8173
vn -0.0000 -0.1939 -0.9810
vn -0.0000 -0.3805 -0.9248
vn -0.0000 0.0000 -1.0000
vn -0.0000 0.1939 -0.9810
vn 0.1804 0.3805 -0.9070
vn 0.1914 0.1939 -0.9622
vn 0.1626 0.5528 -0.8173
vn 0.2718 0.7041 -0.6561
vn 0.3189 0.5528 -0.7699
vn 0.2142 0.8286 -0.5172
vn 0.2155 0.9217 -0.3225
vn 0.3110 0.8286 -0.4654
vn 0.1484 0.9217 -0.3584
vn 0.0769 0.9796 -0.1857
vn 0.2743 0.9217 -0.2743
vn 0.3958 0.8286 -0.3958
vn 0.3945 0.7041 -0.5905
vn 0.5021 0.7041 -0.5021
vn 0.4630 0.5528 -0.6929
vn 0.3539 0.3805 -0.8544
vn 0.5138 0.3805 -0.7689
vn 0.3754 0.1939 -0.9063
vn 0.1951 0.0000 -0.9808
vn 0.3827 0.0000 -0.9239
vn 0.3754 -0.1939 -0.9063
vn 0.1914 -0.1939 -0.9622
vn 0.1804 -0.3805 -0.9070
vn 0.1626 -0.5528 -0.8173
vn -0.0000 -0.5528 -0.8333
vn 0.3539 -0.3805 -0.8544
vn 0.3189 -0.5528 -0.7699
vn 0.5450 -0.1939 -0.8157
vn 0.5138 -0.3805 -0.7689
vn 0.5556 0.0000 -0.8315
vn 0.5450 0.1939 -0.8157
vn 0.6539 0.3805 -0.6539
vn 0.6937 0.1939 -0.6937
vn 0.5893 0.5528 -0.5893
vn 0.5905 0.7041 -0.3945
vn 0.6929 0.5528 -0.4630
vn 0.4654 0.8286 -0.3110
vn 0.7689 0.3805 -0.5138
vn 0.8157 0.1939 -0.5450
vn 0.7071 0.0000 -0.7071
vn 0.8315 0.0000 -0.5556
vn 0.8157 -0.1939 -0.5450
vn 0.6937 -0.1939 -0.6937
vn 0.6539 -0.3805 -0.6539
vn 0.4630 -0.5528 -0.6929
vn 0.5893 -0.5528 -0.5893
vn 0.7689 -0.3805 -0.5138
vn 0.6929 -0.5528 -0.4630
vn 0.3225 0.9217 -0.2155
vn 0.0962 0.9952 -0.0187
vn 0.0000 -1.0000 -0.0000
vn -0.4795 0.2723 -0.8342
vn -0.3685 0.2702 -0.8895
vn -0.5861 0.2702 -0.7639
vn -0.9289 0.2723 -0.2509
vn -0.8895 0.2702 -0.3685
vn -0.9546 0.2702 -0.1257
vn -0.8342 0.2723 0.4795
vn -0.8895 0.2702 0.3685
vn -0.7639 0.2702 0.5861
vn -0.2509 0.2723 0.9289
vn -0.3685 0.2702 0.8895
vn -0.1257 0.2702 0.9546
vn 0.4795 0.2723 0.8342
vn 0.3685 0.2702 0.8895
vn 0.5861 0.2702 0.7639
vn 0.9289 0.2723 0.2509
vn 0.8895 0.2702 0.3685
vn 0.9546 0.2702 0.1257
vn 0.8342 0.2723 -0.4795
vn 0.8895 0.2702 -0.3685
vn 0.7639 0.2702 -0.5861
vn 0.2509 0.2723 -0.9289
vn 0.3685 0.2702 -0.8895
vn 0.1257 0.2702 -0.9546
vn 0.6088 -0.7715 0.1847
vn 0.2999 -0.7715 0.5611
vn -0.1847 -0.7715 0.6088
vn -0.5611 -0.7715 0.2999
vn -0.6088 -0.7715 -0.1847
vn -0.2999 -0.7715 -0.5611
vn 0.1847 -0.7715 -0.6088
vn 0.5611 -0.7715 -0.2999
vn 0.0906 0.9952 -0.0375
vn 0.0942 0.9951 -0.0286
vn 0.0868 0.9951 -0.0464
vn 0.0375 0.9952 -0.0906
vn 0.0464 0.9951 -0.0868
vn 0.0286 0.9951 -0.0942
vn -0.0375 0.9952 -0.0906
vn -0.0286 0.9951 -0.0942
vn -0.0464 0.9951 -0.0868
vn -0.0906 0.9952 -0.0375
vn -0.0868 0.9951 -0.0464
vn -0.0942 0.9951 -0.0286
vn -0.0906 0.9952 0.0375
vn -0.0942 0.9951 0.0286
vn -0.0868 0.9951 0.0464
vn -0.0375 0.9952 0.0906
vn -0.0464 0.9951 0.0868
vn -0.0286 0.9951 0.0942
vn 0.0375 0.9952 0.0906
vn 0.0286 0.9951 0.0942
vn 0.0464 0.9951 0.0868
vn 0.0906 0.9952 0.0375
vn 0.0868 0.9951 0.0464
vn 0.0942 0.9951 0.0286
# 674 vertex normals

vt 0.7625 0.2000 0.8000
vt 0.7500 0.0000 1.0000
vt 0.7917 0.0000 1.0000
vt 0.7917 0.2000 0.8000
vt 0.8042 0.2000 0.8000
vt 0.8333 0.0000 1.0000
vt 0.8333 0.2000 0.8000
vt 0.8750 0.2000 0.8000
vt 0.8459 0.2000 0.8000
vt 0.8750 0.0000 1.0000
vt 0.9167 0.2000 0.8000
vt 0.8875 0.2000 0.8000
vt 0.9167 0.0000 1.0000
vt 0.9292 0.2000 0.8000
vt 0.9583 0.0000 1.0000
vt 0.9583 0.2000 0.8000
vt 1.0000 0.2000 0.8000
vt 0.9709 0.2000 0.8000
vt 1.0000 0.0000 1.0000
vt 0.0125 0.2000 0.8000
vt -0.0000 0.0000 1.0000
vt 0.0417 0.0000 1.0000
vt 0.0417 0.2000 0.8000
vt 0.0833 0.2000 0.8000
vt 0.0542 0.2000 0.8000
vt 0.0833 0.0000 1.0000
vt 0.0959 0.2000 0.8000
vt 0.1250 0.0000 1.0000
vt 0.1250 0.2000 0.8000
vt 0.1667 0.2000 0.8000
vt 0.1375 0.2000 0.8000
vt 0.1667 0.0000 1.0000
vt 0.1792 0.2000 0.8000
vt 0.2083 0.0000 1.0000
vt 0.2083 0.2000 0.8000
vt 0.2500 0.2000 0.8000
vt 0.2209 0.2000 0.8000
vt 0.2500 0.0000 1.0000
vt 0.2625 0.2000 0.8000
vt 0.2917 0.0000 1.0000
vt 0.2917 0.2000 0.8000
vt 0.3333 0.2000 0.8000
vt 0.3042 0.2000 0.8000
vt 0.3333 0.0000 1.0000
vt 0.3750 0.2000 0.8000
vt 0.3459 0.2000 0.8000
vt 0.3750 0.0000 1.0000
vt 0.3875 0.2000 0.8000
vt 0.4167 0.0000 1.0000
vt 0.4167 0.2000 0.8000
vt 0.4583 0.2000 0.8000
vt 0.4292 0.2000 0.8000
vt 0.4583 0.0000 1.0000
vt 0.5000 0.2000 0.8000
vt 0.4709 0.2000 0.8000
vt 0.5000 0.0000 1.0000
vt 0.5125 0.2000 0.8000
vt 0.5417 0.0000 1.0000
vt 0.5417 0.2000 0.8000
vt 0.5833 0.2000 0.8000
vt 0.5542 0.2000 0.8000
vt 0.5833 0.0000 1.0000
vt 0.6250 0.2000 0.8000
vt 0.5959 0.2000 0.8000
vt 0.6250 0.0000 1.0000
vt 0.6375 0.2000 0.8000
vt 0.6667 0.0000 1.0000
vt 0.6667 0.2000 0.8000
vt 0.7083 0.2000 0.8000
vt 0.6792 0.2000 0.8000
vt 0.7083 0.0000 1.0000
vt 0.7209 0.2000 0.8000
vt 0.7500 0.2000 0.8000
vt 0.7649 0.4000 0.6000
vt 0.7917 0.4000 0.6000
vt 0.8066 0.4000 0.6000
vt 0.8333 0.4000 0.6000
vt 0.8750 0.4000 0.6000
vt 0.8483 0.4000 0.6000
vt 0.9167 0.4000 0.6000
vt 0.8899 0.4000 0.6000
vt 0.9316 0.4000 0.6000
vt 0.9583 0.4000 0.6000
vt 1.0000 0.4000 0.6000
vt 0.9733 0.4000 0.6000
vt 0.0417 0.4000 0.6000
vt 0.0149 0.4000 0.6000
vt -0.0000 0.2000 0.8000
vt 0.0833 0.4000 0.6000
vt 0.0566 0.4000 0.6000
vt 0.0983 0.4000 0.6000
vt 0.1250 0.4000 0.6000
vt 0.1667 0.4000 0.6000
vt 0.1399 0.4000 0.6000
vt 0.1816 0.4000 0.6000
vt 0.2083 0.4000 0.6000
vt 0.2500 0.4000 0.6000
vt 0.2233 0.4000 0.6000
vt 0.2917 0.4000 0.6000
vt 0.2649 0.4000 0.6000
vt 0.3066 0.4000 0.6000
vt 0.3333 0.4000 0.6000
vt 0.3750 0.4000 0.6000
vt 0.3483 0.4000 0.6000
vt 0.3899 0.4000 0.6000
vt 0.4167 0.4000 0.6000
vt 0.4583 0.4000 0.6000
vt 0.4316 0.4000 0.6000
vt 0.5000 0.4000 0.6000
vt 0.4733 0.4000 0.6000
vt 0.5149 0.4000 0.6000
vt 0.5417 0.4000 0.6000
vt 0.5566 0.4000 0.6000
vt 0.5833 0.4000 0.6000
vt 0.6250 0.4000 0.6000
vt 0.5983 0.4000 0.6000
vt 0.6399 0.4000 0.6000
vt 0.6667 0.4000 0.6000
vt 0.7083 0.4000 0.6000
vt 0.6816 0.4000 0.6000
vt 0.7500 0.4000 0.6000
vt 0.7233 0.4000 0.6000
vt 0.7917 0.6000 0.4000
vt 0.7686 0.6000 0.4000
vt 0.8102 0.6000 0.4000
vt 0.8333 0.6000 0.4000
vt 0.8750 0.6000 0.4000
vt 0.8519 0.6000 0.4000
vt 0.8936 0.6000 0.4000
vt 0.9167 0.6000 0.4000
vt 0.9583 0.6000 0.4000
vt 0.9352 0.6000 0.4000
vt 0.9769 0.6000 0.4000
vt 1.0000 0.6000 0.4000
vt 0.0186 0.6000 0.4000
vt -0.0000 0.4000 0.6000
vt 0.0417 0.6000 0.4000
vt 0.0833 0.6000 0.4000
vt 0.0602 0.6000 0.4000
vt 0.1019 0.6000 0.4000
vt 0.1250 0.6000 0.4000
vt 0.1667 0.6000 0.4000
vt 0.1436 0.6000 0.4000
vt 0.1852 0.6000 0.4000
vt 0.2083 0.6000 0.4000
vt 0.2500 0.6000 0.4000
vt 0.2269 0.6000 0.4000
vt 0.2686 0.6000 0.4000
vt 0.2917 0.6000 0.4000
vt 0.3333 0.6000 0.4000
vt 0.3102 0.6000 0.4000
vt 0.3750 0.6000 0.4000
vt 0.3519 0.6000 0.4000
vt 0.3936 0.6000 0.4000
vt 0.4167 0.6000 0.4000
vt 0.4583 0.6000 0.4000
vt 0.4352 0.6000 0.4000
vt 0.5000 0.6000 0.4000
vt 0.4769 0.6000 0.4000
vt 0.5186 0.6000 0.4000
vt 0.5417 0.6000 0.4000
vt 0.5833 0.6000 0.4000
vt 0.5602 0.6000 0.4000
vt 0.6019 0.6000 0.4000
vt 0.6250 0.6000 0.4000
vt 0.6667 0.6000 0.4000
vt 0.6436 0.6000 0.4000
vt 0.6852 0.6000 0.4000
vt 0.7083 0.6000 0.4000
vt 0.7269 0.6000 0.4000
vt 0.7500 0.6000 0.4000
vt 0.2612 0.8981 0.1019
vt 0.2665 0.8981 0.1019
vt 0.5000 1.0000 0.0000
vt 0.2453 0.8981 0.1019
vt 0.2772 0.8981 0.1019
vt 0.2877 0.8981 0.1019
vt 0.2931 0.8981 0.1019
vt 0.3090 0.8981 0.1019
vt 0.3249 0.8981 0.1019
vt 0.3302 0.8981 0.1019
vt 0.3408 0.8981 0.1019
vt 0.3514 0.8981 0.1019
vt 0.3568 0.8981 0.1019
vt 0.3726 0.8981 0.1019
vt 0.3885 0.8981 0.1019
vt 0.3939 0.8981 0.1019
vt 0.4045 0.8981 0.1019
vt 0.4151 0.8981 0.1019
vt 0.4204 0.8981 0.1019
vt 0.4363 0.8981 0.1019
vt 0.4522 0.8981 0.1019
vt 0.4575 0.8981 0.1019
vt 0.4682 0.8981 0.1019
vt 0.4788 0.8981 0.1019
vt 0.4841 0.8981 0.1019
vt 0.5000 0.8981 0.1019
vt 0.5159 0.8981 0.1019
vt 0.5212 0.8981 0.1019
vt 0.5318 0.8981 0.1019
vt 0.5425 0.8981 0.1019
vt 0.5478 0.8981 0.1019
vt 0.5637 0.8981 0.1019
vt 0.5796 0.8981 0.1019
vt 0.5849 0.8981 0.1019
vt 0.5955 0.8981 0.1019
vt 0.6061 0.8981 0.1019
vt 0.6115 0.8981 0.1019
vt 0.6274 0.8981 0.1019
vt 0.6432 0.8981 0.1019
vt 0.6486 0.8981 0.1019
vt 0.6592 0.8981 0.1019
vt 0.6698 0.8981 0.1019
vt 0.6751 0.8981 0.1019
vt 0.6910 0.8981 0.1019
vt 0.7069 0.8981 0.1019
vt 0.7123 0.8981 0.1019
vt 0.7228 0.8981 0.1019
vt 0.7335 0.8981 0.1019
vt 0.7388 0.8981 0.1019
vt 0.7547 0.8981 0.1019
vt 0.0348 0.7138 0.2862
vt 0.0143 0.7141 0.2859
vt -0.0000 0.6000 0.4000
vt 0.0417 0.7143 0.2857
vt 0.1598 0.7138 0.2862
vt 0.1393 0.7141 0.2859
vt 0.1667 0.7143 0.2857
vt 0.2848 0.7138 0.2862
vt 0.2643 0.7141 0.2859
vt 0.2917 0.7143 0.2857
vt 0.4098 0.7138 0.2862
vt 0.3893 0.7141 0.2859
vt 0.4167 0.7143 0.2857
vt 0.5348 0.7138 0.2862
vt 0.5143 0.7141 0.2859
vt 0.5417 0.7143 0.2857
vt 0.6598 0.7138 0.2862
vt 0.6393 0.7141 0.2859
vt 0.6667 0.7143 0.2857
vt 0.7848 0.7138 0.2862
vt 0.7643 0.7141 0.2859
vt 0.7917 0.7143 0.2857
vt 0.9098 0.7138 0.2862
vt 0.8893 0.7141 0.2859
vt 0.9167 0.7143 0.2857
vt 0.7500 0.2049 0.0000
vt 0.7500 0.2500 0.0000
vt 0.7188 0.2500 0.0000
vt 0.7237 0.2036 0.0000
vt 0.6698 0.2058 0.0000
vt 0.6875 0.2032 0.0000
vt 0.6875 0.2500 0.0000
vt 0.6563 0.2500 0.0000
vt 0.6612 0.2036 0.0000
vt 0.6250 0.2500 0.0000
vt 0.6298 0.2049 0.0000
vt 0.6563 0.2036 0.0000
vt 0.6250 0.2049 0.0000
vt 0.5938 0.2500 0.0000
vt 0.5987 0.2036 0.0000
vt 0.5448 0.2058 0.0000
vt 0.5625 0.2032 0.0000
vt 0.5625 0.2500 0.0000
vt 0.5313 0.2500 0.0000
vt 0.5362 0.2036 0.0000
vt 0.5000 0.2500 0.0000
vt 0.5048 0.2049 0.0000
vt 0.5313 0.2036 0.0000
vt 0.5000 0.2049 0.0000
vt 0.4688 0.2500 0.0000
vt 0.4737 0.2036 0.0000
vt 0.4198 0.2058 0.0000
vt 0.4375 0.2032 0.0000
vt 0.4375 0.2500 0.0000
vt 0.4063 0.2500 0.0000
vt 0.4112 0.2036 0.0000
vt 0.3750 0.2500 0.0000
vt 0.3798 0.2049 0.0000
vt 0.4063 0.2036 0.0000
vt 0.3750 0.2049 0.0000
vt 0.3437 0.2500 0.0000
vt 0.3487 0.2036 0.0000
vt 0.2948 0.2058 0.0000
vt 0.3125 0.2032 0.0000
vt 0.3125 0.2500 0.0000
vt 0.2812 0.2500 0.0000
vt 0.2862 0.2036 0.0000
vt 0.2500 0.2500 0.0000
vt 0.2548 0.2049 0.0000
vt 0.2812 0.2036 0.0000
vt 0.2500 0.2049 0.0000
vt 0.2187 0.2500 0.0000
vt 0.2237 0.2036 0.0000
vt 0.1698 0.2058 0.0000
vt 0.1875 0.2032 0.0000
vt 0.1875 0.2500 0.0000
vt 0.1563 0.2500 0.0000
vt 0.1612 0.2036 0.0000
vt 0.1250 0.2500 0.0000
vt 0.1298 0.2049 0.0000
vt 0.1563 0.2036 0.0000
vt 0.1250 0.2049 0.0000
vt 0.0938 0.2500 0.0000
vt 0.0987 0.2036 0.0000
vt 0.0448 0.2058 0.0000
vt 0.0625 0.2032 0.0000
vt 0.0625 0.2500 0.0000
vt 0.0313 0.2500 0.0000
vt 0.0362 0.2036 0.0000
vt 0.0000 0.2500 0.0000
vt 0.0048 0.2049 0.0000
vt 0.0313 0.2036 0.0000
vt 1.0000 0.2049 0.0000
vt 1.0000 0.2500 0.0000
vt 0.9688 0.2500 0.0000
vt 0.9737 0.2036 0.0000
vt 0.9198 0.2058 0.0000
vt 0.9375 0.2032 0.0000
vt 0.9375 0.2500 0.0000
vt 0.9063 0.2500 0.0000
vt 0.9112 0.2036 0.0000
vt 0.8750 0.2500 0.0000
vt 0.8798 0.2049 0.0000
vt 0.9063 0.2036 0.0000
vt 0.8750 0.2049 0.0000
vt 0.8438 0.2500 0.0000
vt 0.8487 0.2036 0.0000
vt 0.7948 0.2058 0.0000
vt 0.8125 0.2032 0.0000
vt 0.8125 0.2500 0.0000
vt 0.7813 0.2500 0.0000
vt 0.7862 0.2036 0.0000
vt 0.7813 0.3125 0.0000
vt 0.7859 0.2500 0.0000
vt 0.8125 0.3125 0.0000
vt 0.7844 0.3125 0.0000
vt 0.8125 0.3750 0.0000
vt 0.7813 0.3750 0.0000
vt 0.7831 0.3750 0.0000
vt 0.8125 0.4375 0.0000
vt 0.7813 0.4375 0.0000
vt 0.7819 0.4375 0.0000
vt 0.8125 0.5000 0.0000
vt 0.7813 0.5000 0.0000
vt 0.7813 0.5625 0.0000
vt 0.8119 0.5625 0.0000
vt 0.7813 0.6250 0.0000
vt 0.8125 0.5625 0.0000
vt 0.8107 0.6250 0.0000
vt 0.7813 0.6875 0.0000
vt 0.8125 0.6250 0.0000
vt 0.8094 0.6875 0.0000
vt 0.8125 0.6875 0.0000
vt 0.8078 0.7500 0.0000
vt 0.7813 0.7500 0.0000
vt 0.7813 0.8125 0.0000
vt 0.8125 0.7500 0.0000
vt 0.8058 0.8125 0.0000
vt 0.8125 0.8125 0.0000
vt 0.8028 0.8750 0.0000
vt 0.7813 0.8750 0.0000
vt 0.8125 0.8750 0.0000
vt 0.7972 0.9375 0.0000
vt 0.7813 0.9375 0.0000
vt 0.8734 0.9408 0.0000
vt 0.8438 0.9412 0.0000
vt 0.8438 0.9375 0.0000
vt 0.8750 0.9375 0.0000
vt 0.8750 0.9408 0.0000
vt 0.9063 0.9375 0.0000
vt 0.9044 0.9412 0.0000
vt 0.9984 0.9408 0.0000
vt 0.9688 0.9412 0.0000
vt 0.9688 0.9375 0.0000
vt 1.0000 0.9375 0.0000
vt -0.0000 0.9408 0.0000
vt 0.0000 0.9375 0.0000
vt 0.0313 0.9375 0.0000
vt 0.0294 0.9412 0.0000
vt 0.1234 0.9408 0.0000
vt 0.0938 0.9412 0.0000
vt 0.0938 0.9375 0.0000
vt 0.1250 0.9375 0.0000
vt 0.1250 0.9408 0.0000
vt 0.1563 0.9375 0.0000
vt 0.1544 0.9412 0.0000
vt 0.2484 0.9408 0.0000
vt 0.2187 0.9412 0.0000
vt 0.2187 0.9375 0.0000
vt 0.2500 0.9375 0.0000
vt 0.2500 0.9408 0.0000
vt 0.2812 0.9375 0.0000
vt 0.2794 0.9412 0.0000
vt 0.3734 0.9408 0.0000
vt 0.3437 0.9412 0.0000
vt 0.3437 0.9375 0.0000
vt 0.3750 0.9375 0.0000
vt 0.3750 0.9408 0.0000
vt 0.4063 0.9375 0.0000
vt 0.4044 0.9412 0.0000
vt 0.4984 0.9408 0.0000
vt 0.4688 0.9412 0.0000
vt 0.4688 0.9375 0.0000
vt 0.5000 0.9375 0.0000
vt 0.5000 0.9408 0.0000
vt 0.5313 0.9375 0.0000
vt 0.5294 0.9412 0.0000
vt 0.6234 0.9408 0.0000
vt 0.5938 0.9412 0.0000
vt 0.5938 0.9375 0.0000
vt 0.6250 0.9375 0.0000
vt 0.6250 0.9408 0.0000
vt 0.6563 0.9375 0.0000
vt 0.6544 0.9412 0.0000
vt 0.7484 0.9408 0.0000
vt 0.7188 0.9412 0.0000
vt 0.7188 0.9375 0.0000
vt 0.7500 0.9375 0.0000
vt 0.7500 0.8750 0.0000
vt 0.7659 0.9375 0.0000
vt 0.7347 0.9375 0.0000
vt 0.7188 0.8750 0.0000
vt 0.7500 0.8125 0.0000
vt 0.7715 0.8750 0.0000
vt 0.7403 0.8750 0.0000
vt 0.7188 0.8125 0.0000
vt 0.7500 0.7500 0.0000
vt 0.7746 0.8125 0.0000
vt 0.7433 0.8125 0.0000
vt 0.7188 0.7500 0.0000
vt 0.7500 0.6875 0.0000
vt 0.7766 0.7500 0.0000
vt 0.7453 0.7500 0.0000
vt 0.7188 0.6875 0.0000
vt 0.7500 0.6250 0.0000
vt 0.7781 0.6875 0.0000
vt 0.7469 0.6875 0.0000
vt 0.7188 0.6250 0.0000
vt 0.7500 0.5625 0.0000
vt 0.7794 0.6250 0.0000
vt 0.7482 0.6250 0.0000
vt 0.7188 0.5625 0.0000
vt 0.7500 0.5000 0.0000
vt 0.7806 0.5625 0.0000
vt 0.7494 0.5625 0.0000
vt 0.7188 0.5000 0.0000
vt 0.7194 0.4375 0.0000
vt 0.7500 0.4375 0.0000
vt 0.7500 0.3750 0.0000
vt 0.7188 0.4375 0.0000
vt 0.7206 0.3750 0.0000
vt 0.7500 0.3125 0.0000
vt 0.7188 0.3750 0.0000
vt 0.7219 0.3125 0.0000
vt 0.7188 0.3125 0.0000
vt 0.7234 0.2500 0.0000
vt 0.6875 0.3750 0.0000
vt 0.6906 0.3125 0.0000
vt 0.6875 0.4375 0.0000
vt 0.6563 0.4375 0.0000
vt 0.6581 0.3750 0.0000
vt 0.6569 0.4375 0.0000
vt 0.6875 0.5000 0.0000
vt 0.6563 0.5000 0.0000
vt 0.6563 0.5625 0.0000
vt 0.6869 0.5625 0.0000
vt 0.6875 0.5625 0.0000
vt 0.6857 0.6250 0.0000
vt 0.6563 0.6250 0.0000
vt 0.6563 0.6875 0.0000
vt 0.6875 0.6250 0.0000
vt 0.6844 0.6875 0.0000
vt 0.6875 0.6875 0.0000
vt 0.6828 0.7500 0.0000
vt 0.6563 0.7500 0.0000
vt 0.6875 0.7500 0.0000
vt 0.6808 0.8125 0.0000
vt 0.6563 0.8125 0.0000
vt 0.6563 0.8750 0.0000
vt 0.6875 0.8125 0.0000
vt 0.6778 0.8750 0.0000
vt 0.6875 0.8750 0.0000
vt 0.6722 0.9375 0.0000
vt 0.7090 0.8750 0.0000
vt 0.6250 0.8750 0.0000
vt 0.6409 0.9375 0.0000
vt 0.6465 0.8750 0.0000
vt 0.6250 0.8125 0.0000
vt 0.5938 0.8750 0.0000
vt 0.6097 0.9375 0.0000
vt 0.6153 0.8750 0.0000
vt 0.5938 0.8125 0.0000
vt 0.6250 0.7500 0.0000
vt 0.6496 0.8125 0.0000
vt 0.6183 0.8125 0.0000
vt 0.5938 0.7500 0.0000
vt 0.6250 0.6875 0.0000
vt 0.6516 0.7500 0.0000
vt 0.6203 0.7500 0.0000
vt 0.5938 0.6875 0.0000
vt 0.6250 0.6250 0.0000
vt 0.6531 0.6875 0.0000
vt 0.6219 0.6875 0.0000
vt 0.5938 0.6250 0.0000
vt 0.6250 0.5625 0.0000
vt 0.6544 0.6250 0.0000
vt 0.6232 0.6250 0.0000
vt 0.5938 0.5625 0.0000
vt 0.6250 0.5000 0.0000
vt 0.6556 0.5625 0.0000
vt 0.6244 0.5625 0.0000
vt 0.5938 0.5000 0.0000
vt 0.5944 0.4375 0.0000
vt 0.6250 0.4375 0.0000
vt 0.6563 0.3750 0.0000
vt 0.6268 0.3750 0.0000
vt 0.6563 0.3125 0.0000
vt 0.6250 0.3750 0.0000
vt 0.6281 0.3125 0.0000
vt 0.6594 0.3125 0.0000
vt 0.6875 0.3125 0.0000
vt 0.6609 0.2500 0.0000
vt 0.6250 0.3125 0.0000
vt 0.6297 0.2500 0.0000
vt 0.5938 0.3750 0.0000
vt 0.5969 0.3125 0.0000
vt 0.5938 0.4375 0.0000
vt 0.5625 0.4375 0.0000
vt 0.5643 0.3750 0.0000
vt 0.5631 0.4375 0.0000
vt 0.5625 0.5000 0.0000
vt 0.5625 0.5625 0.0000
vt 0.5931 0.5625 0.0000
vt 0.5313 0.6250 0.0000
vt 0.5313 0.5625 0.0000
vt 0.5607 0.6250 0.0000
vt 0.5313 0.6875 0.0000
vt 0.5625 0.6250 0.0000
vt 0.5594 0.6875 0.0000
vt 0.5625 0.6875 0.0000
vt 0.5578 0.7500 0.0000
vt 0.5313 0.7500 0.0000
vt 0.5313 0.8125 0.0000
vt 0.5625 0.7500 0.0000
vt 0.5558 0.8125 0.0000
vt 0.5313 0.8750 0.0000
vt 0.5625 0.8125 0.0000
vt 0.5528 0.8750 0.0000
vt 0.5625 0.8750 0.0000
vt 0.5472 0.9375 0.0000
vt 0.5840 0.8750 0.0000
vt 0.5000 0.8750 0.0000
vt 0.5159 0.9375 0.0000
vt 0.5215 0.8750 0.0000
vt 0.5000 0.8125 0.0000
vt 0.4688 0.8750 0.0000
vt 0.4847 0.9375 0.0000
vt 0.4903 0.8750 0.0000
vt 0.4688 0.8125 0.0000
vt 0.5000 0.7500 0.0000
vt 0.5246 0.8125 0.0000
vt 0.4933 0.8125 0.0000
vt 0.4688 0.7500 0.0000
vt 0.5000 0.6875 0.0000
vt 0.5266 0.7500 0.0000
vt 0.4953 0.7500 0.0000
vt 0.4688 0.6875 0.0000
vt 0.5000 0.6250 0.0000
vt 0.5281 0.6875 0.0000
vt 0.4969 0.6875 0.0000
vt 0.4688 0.6250 0.0000
vt 0.5000 0.5625 0.0000
vt 0.5294 0.6250 0.0000
vt 0.5306 0.5625 0.0000
vt 0.5000 0.5000 0.0000
vt 0.5313 0.5000 0.0000
vt 0.5313 0.4375 0.0000
vt 0.5006 0.4375 0.0000
vt 0.5331 0.3750 0.0000
vt 0.5625 0.3750 0.0000
vt 0.5313 0.3750 0.0000
vt 0.5344 0.3125 0.0000
vt 0.5625 0.3125 0.0000
vt 0.5656 0.3125 0.0000
vt 0.5938 0.3125 0.0000
vt 0.5672 0.2500 0.0000
vt 0.5313 0.3125 0.0000
vt 0.5359 0.2500 0.0000
vt 0.5000 0.3750 0.0000
vt 0.5031 0.3125 0.0000
vt 0.5000 0.4375 0.0000
vt 0.4688 0.4375 0.0000
vt 0.4706 0.3750 0.0000
vt 0.4694 0.4375 0.0000
vt 0.4688 0.5000 0.0000
vt 0.4688 0.5625 0.0000
vt 0.4994 0.5625 0.0000
vt 0.4375 0.6250 0.0000
vt 0.4375 0.5625 0.0000
vt 0.4669 0.6250 0.0000
vt 0.4375 0.6875 0.0000
vt 0.4656 0.6875 0.0000
vt 0.4063 0.7500 0.0000
vt 0.4063 0.6875 0.0000
vt 0.4328 0.7500 0.0000
vt 0.4375 0.7500 0.0000
vt 0.4308 0.8125 0.0000
vt 0.4063 0.8125 0.0000
vt 0.4063 0.8750 0.0000
vt 0.4375 0.8125 0.0000
vt 0.4278 0.8750 0.0000
vt 0.4375 0.8750 0.0000
vt 0.4222 0.9375 0.0000
vt 0.4590 0.8750 0.0000
vt 0.3750 0.8750 0.0000
vt 0.3909 0.9375 0.0000
vt 0.3965 0.8750 0.0000
vt 0.3750 0.8125 0.0000
vt 0.3437 0.8750 0.0000
vt 0.3597 0.9375 0.0000
vt 0.3653 0.8750 0.0000
vt 0.3437 0.8125 0.0000
vt 0.3750 0.7500 0.0000
vt 0.3996 0.8125 0.0000
vt 0.3683 0.8125 0.0000
vt 0.3437 0.7500 0.0000
vt 0.3750 0.6875 0.0000
vt 0.4016 0.7500 0.0000
vt 0.4062 0.6250 0.0000
vt 0.4031 0.6875 0.0000
vt 0.3750 0.6250 0.0000
vt 0.4063 0.5625 0.0000
vt 0.4357 0.6250 0.0000
vt 0.4063 0.6250 0.0000
vt 0.4369 0.5625 0.0000
vt 0.4063 0.5000 0.0000
vt 0.4375 0.5000 0.0000
vt 0.4069 0.4375 0.0000
vt 0.4375 0.4375 0.0000
vt 0.4393 0.3750 0.0000
vt 0.4688 0.3750 0.0000
vt 0.4375 0.3750 0.0000
vt 0.4406 0.3125 0.0000
vt 0.4688 0.3125 0.0000
vt 0.4719 0.3125 0.0000
vt 0.5000 0.3125 0.0000
vt 0.4734 0.2500 0.0000
vt 0.4375 0.3125 0.0000
vt 0.4422 0.2500 0.0000
vt 0.4063 0.3750 0.0000
vt 0.4094 0.3125 0.0000
vt 0.4063 0.4375 0.0000
vt 0.3750 0.4375 0.0000
vt 0.3768 0.3750 0.0000
vt 0.3750 0.5000 0.0000
vt 0.3756 0.4375 0.0000
vt 0.3750 0.5625 0.0000
vt 0.4056 0.5625 0.0000
vt 0.3437 0.5625 0.0000
vt 0.3732 0.6250 0.0000
vt 0.3437 0.6250 0.0000
vt 0.3719 0.6875 0.0000
vt 0.3437 0.6875 0.0000
vt 0.3125 0.6875 0.0000
vt 0.3391 0.7500 0.0000
vt 0.3125 0.7500 0.0000
vt 0.3125 0.8125 0.0000
vt 0.3371 0.8125 0.0000
vt 0.2812 0.8750 0.0000
vt 0.2812 0.8125 0.0000
vt 0.3028 0.8750 0.0000
vt 0.3125 0.8750 0.0000
vt 0.2972 0.9375 0.0000
vt 0.3340 0.8750 0.0000
vt 0.2500 0.8750 0.0000
vt 0.2659 0.9375 0.0000
vt 0.2715 0.8750 0.0000
vt 0.2500 0.8125 0.0000
vt 0.2746 0.8125 0.0000
vt 0.2500 0.7500 0.0000
vt 0.2812 0.7500 0.0000
vt 0.2812 0.6875 0.0000
vt 0.3078 0.7500 0.0000
vt 0.3125 0.6250 0.0000
vt 0.3094 0.6875 0.0000
vt 0.2812 0.6250 0.0000
vt 0.3125 0.5625 0.0000
vt 0.3419 0.6250 0.0000
vt 0.3437 0.5000 0.0000
vt 0.3431 0.5625 0.0000
vt 0.3125 0.5000 0.0000
vt 0.3131 0.4375 0.0000
vt 0.3437 0.4375 0.0000
vt 0.3456 0.3750 0.0000
vt 0.3750 0.3750 0.0000
vt 0.3750 0.3125 0.0000
vt 0.3437 0.3750 0.0000
vt 0.3469 0.3125 0.0000
vt 0.3781 0.3125 0.0000
vt 0.4063 0.3125 0.0000
vt 0.3797 0.2500 0.0000
vt 0.3437 0.3125 0.0000
vt 0.3484 0.2500 0.0000
vt 0.3125 0.3750 0.0000
vt 0.3156 0.3125 0.0000
vt 0.3125 0.4375 0.0000
vt 0.2812 0.4375 0.0000
vt 0.2831 0.3750 0.0000
vt 0.2819 0.4375 0.0000
vt 0.2812 0.5000 0.0000
vt 0.2812 0.5625 0.0000
vt 0.3119 0.5625 0.0000
vt 0.2500 0.5625 0.0000
vt 0.2794 0.6250 0.0000
vt 0.2500 0.6250 0.0000
vt 0.2500 0.6875 0.0000
vt 0.2781 0.6875 0.0000
vt 0.2187 0.7500 0.0000
vt 0.2187 0.6875 0.0000
vt 0.2453 0.7500 0.0000
vt 0.2433 0.8125 0.0000
vt 0.2187 0.8125 0.0000
vt 0.1875 0.8750 0.0000
vt 0.1875 0.8125 0.0000
vt 0.2090 0.8750 0.0000
vt 0.1875 0.9375 0.0000
vt 0.2187 0.8750 0.0000
vt 0.2034 0.9375 0.0000
vt 0.2403 0.8750 0.0000
vt 0.1563 0.8750 0.0000
vt 0.1722 0.9375 0.0000
vt 0.1778 0.8750 0.0000
vt 0.1563 0.8125 0.0000
vt 0.1808 0.8125 0.0000
vt 0.1563 0.7500 0.0000
vt 0.1875 0.7500 0.0000
vt 0.1875 0.6875 0.0000
vt 0.2141 0.7500 0.0000
vt 0.2187 0.6250 0.0000
vt 0.2156 0.6875 0.0000
vt 0.1875 0.6250 0.0000
vt 0.2187 0.5625 0.0000
vt 0.2482 0.6250 0.0000
vt 0.2494 0.5625 0.0000
vt 0.2187 0.5000 0.0000
vt 0.2500 0.5000 0.0000
vt 0.2194 0.4375 0.0000
vt 0.2500 0.4375 0.0000
vt 0.2813 0.3750 0.0000
vt 0.2518 0.3750 0.0000
vt 0.2812 0.3750 0.0000
vt 0.2500 0.3750 0.0000
vt 0.2531 0.3125 0.0000
vt 0.2812 0.3125 0.0000
vt 0.2844 0.3125 0.0000
vt 0.3125 0.3125 0.0000
vt 0.2859 0.2500 0.0000
vt 0.2500 0.3125 0.0000
vt 0.2547 0.2500 0.0000
vt 0.2187 0.3750 0.0000
vt 0.2219 0.3125 0.0000
vt 0.2187 0.4375 0.0000
vt 0.1875 0.4375 0.0000
vt 0.1893 0.3750 0.0000
vt 0.1881 0.4375 0.0000
vt 0.2188 0.5000 0.0000
vt 0.1875 0.5000 0.0000
vt 0.1875 0.5625 0.0000
vt 0.2181 0.5625 0.0000
vt 0.1563 0.5625 0.0000
vt 0.1857 0.6250 0.0000
vt 0.1563 0.6250 0.0000
vt 0.1563 0.6875 0.0000
vt 0.1562 0.6250 0.0000
vt 0.1844 0.6875 0.0000
vt 0.1250 0.6875 0.0000
vt 0.1516 0.7500 0.0000
vt 0.1250 0.7500 0.0000
vt 0.1496 0.8125 0.0000
vt 0.1250 0.8125 0.0000
vt 0.0938 0.8125 0.0000
vt 0.1153 0.8750 0.0000
vt 0.0938 0.8750 0.0000
vt 0.1250 0.8750 0.0000
vt 0.1097 0.9375 0.0000
vt 0.1465 0.8750 0.0000
vt 0.0625 0.8750 0.0000
vt 0.0784 0.9375 0.0000
vt 0.0625 0.9375 0.0000
vt 0.0840 0.8750 0.0000
vt 0.0625 0.8125 0.0000
vt 0.0938 0.7500 0.0000
vt 0.0871 0.8125 0.0000
vt 0.0625 0.7500 0.0000
vt 0.0938 0.6875 0.0000
vt 0.1203 0.7500 0.0000
vt 0.1250 0.6250 0.0000
vt 0.1219 0.6875 0.0000
vt 0.0937 0.6875 0.0000
vt 0.0938 0.6250 0.0000
vt 0.1250 0.5625 0.0000
vt 0.1562 0.5625 0.0000
vt 0.1544 0.6250 0.0000
vt 0.1556 0.5625 0.0000
vt 0.1250 0.5000 0.0000
vt 0.1562 0.5000 0.0000
vt 0.1563 0.4375 0.0000
vt 0.1563 0.5000 0.0000
vt 0.1256 0.4375 0.0000
vt 0.1581 0.3750 0.0000
vt 0.1875 0.3750 0.0000
vt 0.1563 0.3750 0.0000
vt 0.1594 0.3125 0.0000
vt 0.1875 0.3125 0.0000
vt 0.1906 0.3125 0.0000
vt 0.2187 0.3125 0.0000
vt 0.1922 0.2500 0.0000
vt 0.1563 0.3125 0.0000
vt 0.1609 0.2500 0.0000
vt 0.1250 0.3750 0.0000
vt 0.1281 0.3125 0.0000
vt 0.1250 0.4375 0.0000
vt 0.0938 0.4375 0.0000
vt 0.0956 0.3750 0.0000
vt 0.0944 0.4375 0.0000
vt 0.0938 0.5000 0.0000
vt 0.0937 0.5625 0.0000
vt 0.1244 0.5625 0.0000
vt 0.0625 0.5625 0.0000
vt 0.0919 0.6250 0.0000
vt 0.0625 0.6250 0.0000
vt 0.0906 0.6875 0.0000
vt 0.0625 0.6875 0.0000
vt 0.0312 0.6875 0.0000
vt 0.0578 0.7500 0.0000
vt 0.0312 0.7500 0.0000
vt 0.0313 0.7500 0.0000
vt 0.0558 0.8125 0.0000
vt 0.0313 0.8125 0.0000
vt 0.0000 0.8125 0.0000
vt 0.0215 0.8750 0.0000
vt 0.0000 0.8750 0.0000
vt 0.0313 0.8750 0.0000
vt 0.0159 0.9375 0.0000
vt 0.0528 0.8750 0.0000
vt 0.9688 0.8750 0.0000
vt 1.0000 0.8750 0.0000
vt 0.9847 0.9375 0.0000
vt 1.0000 0.8125 0.0000
vt 0.9903 0.8750 0.0000
vt 0.9688 0.8125 0.0000
vt 1.0000 0.7500 0.0000
vt 0.9933 0.8125 0.0000
vt 0.9688 0.7500 0.0000
vt -0.0000 0.7500 0.0000
vt -0.0000 0.6875 0.0000
vt 0.0266 0.7500 0.0000
vt 0.0313 0.6250 0.0000
vt 0.0281 0.6875 0.0000
vt 0.0000 0.6250 0.0000
vt 0.0312 0.6250 0.0000
vt 0.0312 0.5625 0.0000
vt 0.0607 0.6250 0.0000
vt 0.0619 0.5625 0.0000
vt 0.0313 0.5625 0.0000
vt 0.0313 0.5000 0.0000
vt 0.0625 0.5000 0.0000
vt 0.0625 0.4375 0.0000
vt 0.0319 0.4375 0.0000
vt 0.0643 0.3750 0.0000
vt 0.0937 0.3750 0.0000
vt 0.0937 0.3125 0.0000
vt 0.0625 0.3750 0.0000
vt 0.0656 0.3125 0.0000
vt 0.0969 0.3125 0.0000
vt 0.1250 0.3125 0.0000
vt 0.0938 0.3125 0.0000
vt 0.0984 0.2500 0.0000
vt 0.0937 0.2500 0.0000
vt 0.0625 0.3125 0.0000
vt 0.0672 0.2500 0.0000
vt 0.0312 0.3750 0.0000
vt 0.0344 0.3125 0.0000
vt 0.0313 0.4375 0.0000
vt 0.0000 0.4375 0.0000
vt 0.0018 0.3750 0.0000
vt 0.0313 0.3750 0.0000
vt 0.0006 0.4375 0.0000
vt 0.0000 0.5000 0.0000
vt -0.0000 0.5625 0.0000
vt -0.0000 0.5000 0.0000
vt 0.0312 0.5000 0.0000
vt 0.0306 0.5625 0.0000
vt 0.9688 0.6250 0.0000
vt 0.9688 0.5625 0.0000
vt 1.0000 0.5625 0.0000
vt 0.9982 0.6250 0.0000
vt 0.9688 0.6875 0.0000
vt 1.0000 0.6250 0.0000
vt 0.9969 0.6875 0.0000
vt 0.9375 0.7500 0.0000
vt 0.9375 0.6875 0.0000
vt 0.9641 0.7500 0.0000
vt 0.9621 0.8125 0.0000
vt 0.9375 0.8125 0.0000
vt 0.9063 0.8750 0.0000
vt 0.9063 0.8125 0.0000
vt 0.9278 0.8750 0.0000
vt 0.9375 0.8750 0.0000
vt 0.9222 0.9375 0.0000
vt 0.9590 0.8750 0.0000
vt 0.8750 0.8750 0.0000
vt 0.8909 0.9375 0.0000
vt 0.8965 0.8750 0.0000
vt 0.8750 0.8125 0.0000
vt 0.9063 0.7500 0.0000
vt 0.8996 0.8125 0.0000
vt 0.8750 0.7500 0.0000
vt 0.9063 0.6875 0.0000
vt 0.9328 0.7500 0.0000
vt 0.9375 0.6250 0.0000
vt 0.9344 0.6875 0.0000
vt 0.9063 0.6250 0.0000
vt 0.9375 0.5625 0.0000
vt 0.9669 0.6250 0.0000
vt 0.9688 0.5000 0.0000
vt 0.9681 0.5625 0.0000
vt 0.9375 0.5000 0.0000
vt 0.9381 0.4375 0.0000
vt 0.9688 0.4375 0.0000
vt 1.0000 0.4375 0.0000
vt 0.9706 0.3750 0.0000
vt 1.0000 0.3750 0.0000
vt 0.9688 0.3750 0.0000
vt 0.9719 0.3125 0.0000
vt 1.0000 0.3125 0.0000
vt 0.0031 0.3125 0.0000
vt 0.0312 0.3125 0.0000
vt -0.0000 0.3750 0.0000
vt -0.0000 0.3125 0.0000
vt 0.0047 0.2500 0.0000
vt 0.0312 0.2500 0.0000
vt 0.9688 0.3125 0.0000
vt 0.9734 0.2500 0.0000
vt 0.9375 0.3750 0.0000
vt 0.9406 0.3125 0.0000
vt 0.9375 0.4375 0.0000
vt 0.9063 0.4375 0.0000
vt 0.9081 0.3750 0.0000
vt 0.9069 0.4375 0.0000
vt 0.9063 0.5000 0.0000
vt 0.9369 0.5625 0.0000
vt 0.9063 0.5625 0.0000
vt 0.8750 0.6250 0.0000
vt 0.8750 0.5625 0.0000
vt 0.9044 0.6250 0.0000
vt 0.9031 0.6875 0.0000
vt 0.8750 0.6875 0.0000
vt 0.8438 0.7500 0.0000
vt 0.8438 0.6875 0.0000
vt 0.8703 0.7500 0.0000
vt 0.8438 0.8125 0.0000
vt 0.8683 0.8125 0.0000
vt 0.8719 0.6875 0.0000
vt 0.8438 0.6250 0.0000
vt 0.8732 0.6250 0.0000
vt 0.8438 0.5625 0.0000
vt 0.8750 0.5000 0.0000
vt 0.8744 0.5625 0.0000
vt 0.8438 0.5000 0.0000
vt 0.8444 0.4375 0.0000
vt 0.8750 0.4375 0.0000
vt 0.8768 0.3750 0.0000
vt 0.9063 0.3750 0.0000
vt 0.9063 0.3125 0.0000
vt 0.8750 0.3750 0.0000
vt 0.8781 0.3125 0.0000
vt 0.9094 0.3125 0.0000
vt 0.9375 0.3125 0.0000
vt 0.9109 0.2500 0.0000
vt 0.8750 0.3125 0.0000
vt 0.8797 0.2500 0.0000
vt 0.8438 0.3750 0.0000
vt 0.8469 0.3125 0.0000
vt 0.8438 0.4375 0.0000
vt 0.8143 0.3750 0.0000
vt 0.8438 0.3125 0.0000
vt 0.8484 0.2500 0.0000
vt 0.8156 0.3125 0.0000
vt 0.8456 0.3750 0.0000
vt 0.8131 0.4375 0.0000
vt 0.9056 0.5625 0.0000
vt 0.8756 0.4375 0.0000
vt 0.9422 0.2500 0.0000
vt 0.9393 0.3750 0.0000
vt 0.9357 0.6250 0.0000
vt 0.9016 0.7500 0.0000
vt 0.8438 0.8750 0.0000
vt 0.8653 0.8750 0.0000
vt 0.8597 0.9375 0.0000
vt 0.9308 0.8125 0.0000
vt 0.9656 0.6875 0.0000
vt 1.0000 0.5000 0.0000
vt 0.9994 0.5625 0.0000
vt 0.9694 0.4375 0.0000
vt 0.0359 0.2500 0.0000
vt 0.0331 0.3750 0.0000
vt 0.0294 0.6250 0.0000
vt 0.9953 0.7500 0.0000
vt 1.0000 0.6875 0.0000
vt 0.9534 0.9375 0.0000
vt 0.9375 0.9375 0.0000
vt 0.0246 0.8125 0.0000
vt 0.0000 0.7500 0.0000
vt 0.0594 0.6875 0.0000
vt 0.0937 0.5000 0.0000
vt 0.0931 0.5625 0.0000
vt 0.0631 0.4375 0.0000
vt 0.1297 0.2500 0.0000
vt 0.1268 0.3750 0.0000
vt 0.1232 0.6250 0.0000
vt 0.0938 0.5625 0.0000
vt 0.0891 0.7500 0.0000
vt 0.0472 0.9375 0.0000
vt 0.1183 0.8125 0.0000
vt 0.1531 0.6875 0.0000
vt 0.1869 0.5625 0.0000
vt 0.1569 0.4375 0.0000
vt 0.2234 0.2500 0.0000
vt 0.2206 0.3750 0.0000
vt 0.2169 0.6250 0.0000
vt 0.1828 0.7500 0.0000
vt 0.1409 0.9375 0.0000
vt 0.2121 0.8125 0.0000
vt 0.2469 0.6875 0.0000
vt 0.2806 0.5625 0.0000
vt 0.2506 0.4375 0.0000
vt 0.2813 0.5000 0.0000
vt 0.3172 0.2500 0.0000
vt 0.3143 0.3750 0.0000
vt 0.3107 0.6250 0.0000
vt 0.2766 0.7500 0.0000
vt 0.2347 0.9375 0.0000
vt 0.3058 0.8125 0.0000
vt 0.3406 0.6875 0.0000
vt 0.3744 0.5625 0.0000
vt 0.3438 0.5000 0.0000
vt 0.3444 0.4375 0.0000
vt 0.4109 0.2500 0.0000
vt 0.4081 0.3750 0.0000
vt 0.4044 0.6250 0.0000
vt 0.4062 0.5625 0.0000
vt 0.3703 0.7500 0.0000
vt 0.3284 0.9375 0.0000
vt 0.3125 0.9375 0.0000
vt 0.4621 0.8125 0.0000
vt 0.4641 0.7500 0.0000
vt 0.4344 0.6875 0.0000
vt 0.4681 0.5625 0.0000
vt 0.4381 0.4375 0.0000
vt 0.5047 0.2500 0.0000
vt 0.5018 0.3750 0.0000
vt 0.4982 0.6250 0.0000
vt 0.4375 0.9375 0.0000
vt 0.4534 0.9375 0.0000
vt 0.5871 0.8125 0.0000
vt 0.5891 0.7500 0.0000
vt 0.5906 0.6875 0.0000
vt 0.5919 0.6250 0.0000
vt 0.5619 0.5625 0.0000
vt 0.5319 0.4375 0.0000
vt 0.5984 0.2500 0.0000
vt 0.5956 0.3750 0.0000
vt 0.5625 0.9375 0.0000
vt 0.5784 0.9375 0.0000
vt 0.7121 0.8125 0.0000
vt 0.7141 0.7500 0.0000
vt 0.7156 0.6875 0.0000
vt 0.7169 0.6250 0.0000
vt 0.7181 0.5625 0.0000
vt 0.6256 0.4375 0.0000
vt 0.6922 0.2500 0.0000
vt 0.6893 0.3750 0.0000
vt 0.6881 0.4375 0.0000
vt 0.6875 0.9375 0.0000
vt 0.7034 0.9375 0.0000
vt 0.7500 0.9408 0.0000
vt 0.7794 0.9412 0.0000
vt 0.8284 0.9375 0.0000
vt 0.8125 0.9375 0.0000
vt 0.8340 0.8750 0.0000
vt 0.8371 0.8125 0.0000
vt 0.8391 0.7500 0.0000
vt 0.8406 0.6875 0.0000
vt 0.8419 0.6250 0.0000
vt 0.8431 0.5625 0.0000
vt 0.7506 0.4375 0.0000
vt 0.7518 0.3750 0.0000
vt 0.8172 0.2500 0.0000
vt 0.7531 0.3125 0.0000
vt 0.7547 0.2500 0.0000
vt 0.7548 0.2049 0.0000
vt 0.7813 0.2036 0.0000
vt 0.4732 0.0000 0.3860
vt 0.3829 0.0000 0.1317
vt 0.3006 0.0000 -0.1317
vt 0.2319 0.0000 -0.3860
vt 0.1815 0.0000 -0.6140
vt 0.1528 0.0000 -0.8002
vt 0.1477 0.0000 -0.9319
vt 0.1667 0.0000 -1.0000
vt 0.2083 0.0000 -1.0000
vt 0.2699 0.0000 -0.9319
vt 0.3471 0.0000 -0.8002
vt 0.4347 0.0000 -0.6140
vt 0.5268 0.0000 -0.3860
vt 0.6171 0.0000 -0.1317
vt 0.6994 0.0000 0.1317
vt 0.7681 0.0000 0.3860
vt 0.8185 0.0000 0.6140
vt 0.8472 0.0000 0.8002
vt 0.8523 0.0000 0.9319
vt 0.7301 0.0000 0.9319
vt 0.6529 0.0000 0.8002
vt 0.5653 0.0000 0.6140
vt 0.0833 0.7143 0.2857
vt 0.0696 0.7137 0.2863
vt 0.0560 0.7143 0.2857
vt 0.1250 0.7141 0.2859
vt 0.1045 0.7138 0.2862
vt 0.0976 0.7143 0.2857
vt 0.2083 0.7143 0.2857
vt 0.1946 0.7137 0.2863
vt 0.1810 0.7143 0.2857
vt 0.2500 0.7141 0.2859
vt 0.2295 0.7138 0.2862
vt 0.2226 0.7143 0.2857
vt 0.3333 0.7143 0.2857
vt 0.3196 0.7137 0.2863
vt 0.3060 0.7143 0.2857
vt 0.3750 0.7141 0.2859
vt 0.3545 0.7138 0.2862
vt 0.3476 0.7143 0.2857
vt 0.4583 0.7143 0.2857
vt 0.4446 0.7137 0.2863
vt 0.4310 0.7143 0.2857
vt 0.5000 0.7141 0.2859
vt 0.4795 0.7138 0.2862
vt 0.4726 0.7143 0.2857
vt 0.5833 0.7143 0.2857
vt 0.5696 0.7137 0.2863
vt 0.5560 0.7143 0.2857
vt 0.6250 0.7141 0.2859
vt 0.6045 0.7138 0.2862
vt 0.5976 0.7143 0.2857
vt 0.7083 0.7143 0.2857
vt 0.6946 0.7137 0.2863
vt 0.6810 0.7143 0.2857
vt 0.7500 0.7141 0.2859
vt 0.7295 0.7138 0.2862
vt 0.7226 0.7143 0.2857
vt 0.8333 0.7143 0.2857
vt 0.8196 0.7137 0.2863
vt 0.8060 0.7143 0.2857
vt 0.8750 0.7141 0.2859
vt 0.8545 0.7138 0.2862
vt 0.8476 0.7143 0.2857
vt 0.9583 0.7143 0.2857
vt 0.9446 0.7137 0.2863
vt 0.9310 0.7143 0.2857
vt 1.0000 0.7141 0.2859
vt 0.9795 0.7138 0.2862
vt 0.9726 0.7143 0.2857
vt 0.6925 0.2032 0.0000
vt 0.7099 0.2058 0.0000
vt 0.7188 0.2036 0.0000
vt 0.5675 0.2032 0.0000
vt 0.5849 0.2058 0.0000
vt 0.5938 0.2036 0.0000
vt 0.4425 0.2032 0.0000
vt 0.4599 0.2058 0.0000
vt 0.4688 0.2036 0.0000
vt 0.3175 0.2032 0.0000
vt 0.3349 0.2058 0.0000
vt 0.3437 0.2036 0.0000
vt 0.1925 0.2032 0.0000
vt 0.2099 0.2058 0.0000
vt 0.2187 0.2036 0.0000
vt 0.0675 0.2032 0.0000
vt 0.0849 0.2058 0.0000
vt 0.0938 0.2036 0.0000
vt 0.9425 0.2032 0.0000
vt 0.9599 0.2058 0.0000
vt 0.9688 0.2036 0.0000
vt 0.8175 0.2032 0.0000
vt 0.8349 0.2058 0.0000
vt 0.8438 0.2036 0.0000
vt 0.8106 0.9413 0.0000
vt 0.7912 0.9405 0.0000
vt 0.7813 0.9412 0.0000
vt 0.8419 0.9412 0.0000
vt 0.8323 0.9405 0.0000
vt 0.8125 0.9413 0.0000
vt 0.9356 0.9413 0.0000
vt 0.9162 0.9405 0.0000
vt 0.9063 0.9412 0.0000
vt 0.9669 0.9412 0.0000
vt 0.9573 0.9405 0.0000
vt 0.9375 0.9413 0.0000
vt 0.0606 0.9413 0.0000
vt 0.0412 0.9405 0.0000
vt 0.0313 0.9412 0.0000
vt 0.0919 0.9412 0.0000
vt 0.0823 0.9405 0.0000
vt 0.0625 0.9413 0.0000
vt 0.1856 0.9413 0.0000
vt 0.1662 0.9405 0.0000
vt 0.1563 0.9412 0.0000
vt 0.2169 0.9412 0.0000
vt 0.2073 0.9405 0.0000
vt 0.1875 0.9413 0.0000
vt 0.3106 0.9413 0.0000
vt 0.2912 0.9405 0.0000
vt 0.2812 0.9412 0.0000
vt 0.3419 0.9412 0.0000
vt 0.3323 0.9405 0.0000
vt 0.3125 0.9413 0.0000
vt 0.4356 0.9413 0.0000
vt 0.4162 0.9405 0.0000
vt 0.4063 0.9412 0.0000
vt 0.4669 0.9412 0.0000
vt 0.4573 0.9405 0.0000
vt 0.4375 0.9413 0.0000
vt 0.5606 0.9413 0.0000
vt 0.5412 0.9405 0.0000
vt 0.5313 0.9412 0.0000
vt 0.5919 0.9412 0.0000
vt 0.5823 0.9405 0.0000
vt 0.5625 0.9413 0.0000
vt 0.6856 0.9413 0.0000
vt 0.6662 0.9405 0.0000
vt 0.6563 0.9412 0.0000
vt 0.7169 0.9412 0.0000
vt 0.7073 0.9405 0.0000
vt 0.6875 0.9413 0.0000
# 1246 texture coords

g Cone001
usemtl wire_028089177
s 8
f 1/1/1 2/2/2 3/3/3 4/4/4 
f 4/5/4 3/3/3 5/6/5 6/7/6 
f 7/8/7 6/9/6 5/6/5 8/10/8 
f 9/11/9 7/12/7 8/10/8 10/13/10 
f 9/14/9 10/13/10 11/15/11 12/16/12 
f 13/17/13 12/18/12 11/15/11 14/19/14 
f 13/20/13 14/21/14 15/22/15 16/23/16 
f 17/24/17 16/25/16 15/22/15 18/26/18 
f 17/27/17 18/26/18 19/28/19 20/29/20 
f 21/30/21 20/31/20 19/28/19 22/32/22 
f 21/33/21 22/32/22 23/34/23 24/35/24 
f 25/36/25 24/37/24 23/34/23 26/38/26 
f 25/39/25 26/38/26 27/40/27 28/41/28 
f 29/42/29 28/43/28 27/40/27 30/44/30 
f 31/45/31 29/46/29 30/44/30 32/47/32 
f 31/48/31 32/47/32 33/49/33 34/50/34 
f 35/51/35 34/52/34 33/49/33 36/53/36 
f 37/54/37 35/55/35 36/53/36 38/56/38 
f 37/57/37 38/56/38 39/58/39 40/59/40 
f 41/60/41 40/61/40 39/58/39 42/62/42 
f 43/63/43 41/64/41 42/62/42 44/65/44 
f 43/66/43 44/65/44 45/67/45 46/68/46 
f 47/69/47 46/70/46 45/67/45 48/71/48 
f 47/72/47 48/71/48 2/2/2 1/73/1 
f 49/74/49 1/73/1 4/4/4 50/75/50 
f 50/76/50 4/4/4 6/7/6 51/77/51 
f 52/78/52 51/79/51 6/7/6 7/8/7 
f 53/80/53 52/81/52 7/8/7 9/11/9 
f 53/82/53 9/11/9 12/16/12 54/83/54 
f 55/84/55 54/85/54 12/16/12 13/17/13 
f 56/86/56 55/87/55 13/88/13 16/23/16 
f 57/89/57 56/90/56 16/23/16 17/24/17 
f 57/91/57 17/24/17 20/29/20 58/92/58 
f 59/93/59 58/94/58 20/29/20 21/30/21 
f 59/95/59 21/30/21 24/35/24 60/96/60 
f 61/97/61 60/98/60 24/35/24 25/36/25 
f 62/99/62 61/100/61 25/36/25 28/41/28 
f 62/101/62 28/41/28 29/42/29 63/102/63 
f 64/103/64 63/104/63 29/42/29 31/45/31 
f 64/105/64 31/45/31 34/50/34 65/106/65 
f 66/107/66 65/108/65 34/50/34 35/51/35 
f 67/109/67 66/110/66 35/51/35 37/54/37 
f 67/111/67 37/54/37 40/59/40 68/112/68 
f 68/113/68 40/59/40 41/60/41 69/114/69 
f 70/115/70 69/116/69 41/60/41 43/63/43 
f 70/117/70 43/63/43 46/68/46 71/118/71 
f 72/119/72 71/120/71 46/68/46 47/69/47 
f 49/121/49 72/122/72 47/69/47 1/73/1 
f 73/123/73 74/124/74 49/121/49 50/75/50 
f 73/125/73 50/75/50 51/77/51 75/126/75 
f 76/127/76 75/128/75 51/77/51 52/78/52 
f 76/129/76 52/78/52 53/80/53 77/130/77 
f 78/131/78 77/132/77 53/80/53 54/83/54 
f 78/133/78 54/83/54 55/84/55 79/134/79 
f 79/135/79 55/136/55 56/86/56 80/137/80 
f 81/138/81 80/139/80 56/86/56 57/89/57 
f 81/140/81 57/89/57 58/92/58 82/141/82 
f 83/142/83 82/143/82 58/92/58 59/93/59 
f 83/144/83 59/93/59 60/96/60 84/145/84 
f 85/146/85 84/147/84 60/96/60 61/97/61 
f 85/148/85 61/97/61 62/99/62 86/149/86 
f 87/150/87 86/151/86 62/99/62 63/102/63 
f 88/152/88 87/153/87 63/102/63 64/103/64 
f 88/154/88 64/103/64 65/106/65 89/155/89 
f 90/156/90 89/157/89 65/106/65 66/107/66 
f 91/158/91 90/159/90 66/107/66 67/109/67 
f 91/160/91 67/109/67 68/112/68 92/161/92 
f 93/162/93 92/163/92 68/112/68 69/114/69 
f 93/164/93 69/114/69 70/115/70 94/165/94 
f 95/166/95 94/167/94 70/115/70 71/118/71 
f 95/168/95 71/118/71 72/119/72 96/169/96 
f 96/170/96 72/119/72 49/121/49 74/171/74 
f 97/172/97 98/173/98 99/174/99 100/175/100 
f 101/176/101 102/177/102 99/174/99 98/173/98 
f 99/174/99 102/177/102 103/178/103 104/179/104 
f 105/180/105 106/181/106 99/174/99 104/179/104 
f 107/182/107 108/183/108 99/174/99 106/181/106 
f 99/174/99 108/183/108 109/184/109 110/185/110 
f 111/186/111 112/187/112 99/174/99 110/185/110 
f 113/188/113 114/189/114 99/174/99 112/187/112 
f 99/174/99 114/189/114 115/190/115 116/191/116 
f 117/192/117 118/193/118 99/174/99 116/191/116 
f 119/194/119 120/195/120 99/174/99 118/193/118 
f 99/174/99 120/195/120 121/196/121 122/197/122 
f 123/198/123 124/199/124 99/174/99 122/197/122 
f 125/200/125 126/201/126 99/174/99 124/199/124 
f 99/174/99 126/201/126 127/202/127 128/203/128 
f 129/204/129 130/205/130 99/174/99 128/203/128 
f 131/206/131 132/207/132 99/174/99 130/205/130 
f 99/174/99 132/207/132 133/208/133 134/209/134 
f 135/210/135 136/211/136 99/174/99 134/209/134 
f 137/212/137 138/213/138 99/174/99 136/211/136 
f 99/174/99 138/213/138 139/214/139 140/215/140 
f 141/216/141 142/217/142 99/174/99 140/215/140 
f 143/218/143 144/219/144 99/174/99 142/217/142 
f 99/174/99 144/219/144 145/220/145 100/221/100 
f 146/222/146 147/223/147 79/224/79 80/137/80 148/225/148 
f 149/226/149 150/227/150 82/141/82 83/142/83 151/228/151 
f 152/229/152 153/230/153 85/146/85 86/149/86 154/231/154 
f 155/232/155 156/233/156 88/152/88 89/155/89 157/234/157 
f 158/235/158 159/236/159 91/158/91 92/161/92 160/237/160 
f 161/238/161 162/239/162 94/165/94 95/166/95 163/240/163 
f 164/241/164 165/242/165 74/171/74 73/123/73 166/243/166 
f 167/244/167 168/245/168 76/127/76 77/130/77 169/246/169 
s 1
f 165/247/170 170/248/171 171/249/172 172/250/173 
f 163/251/174 173/252/175 174/253/176 175/254/177 161/255/178 
f 175/254/177 176/256/179 162/257/180 161/258/178 
f 162/259/180 176/256/179 177/260/181 178/261/182 
f 160/262/183 179/263/184 180/264/185 181/265/186 158/266/187 
f 181/265/186 182/267/188 159/268/189 158/269/187 
f 159/270/189 182/267/188 183/271/190 184/272/191 
f 157/273/192 185/274/193 186/275/194 187/276/195 155/277/196 
f 187/276/195 188/278/197 156/279/198 155/280/196 
f 156/281/198 188/278/197 189/282/199 190/283/200 
f 154/284/201 191/285/202 192/286/203 193/287/204 152/288/205 
f 193/287/204 194/289/206 153/290/207 152/291/205 
f 153/292/207 194/289/206 195/293/208 196/294/209 
f 151/295/210 197/296/211 198/297/212 199/298/213 149/299/214 
f 199/298/213 200/300/215 150/301/216 149/302/214 
f 150/303/216 200/300/215 201/304/217 202/305/218 
f 148/306/219 203/307/220 204/308/221 205/309/222 146/310/223 
f 205/309/222 206/311/224 147/312/225 146/313/223 
f 147/314/225 206/315/224 207/316/226 208/317/227 
f 169/318/228 209/319/229 210/320/230 211/321/231 167/322/232 
f 211/321/231 212/323/233 168/324/234 167/325/232 
f 168/326/234 212/323/233 213/327/235 214/328/236 
f 166/329/237 215/330/238 216/331/239 217/332/240 164/333/241 
f 218/334/242 217/335/240 216/331/239 219/336/243 
f 218/337/242 219/336/243 220/338/244 221/339/245 
f 221/340/245 220/338/244 222/341/246 223/342/247 
f 223/343/247 222/341/246 224/344/248 225/345/249 
f 226/346/250 225/345/249 224/344/248 227/347/251 
f 228/348/252 226/346/250 227/349/251 229/350/253 
f 230/351/254 228/348/252 229/352/253 231/353/255 
f 230/351/254 231/354/255 232/355/256 233/356/257 
f 234/357/258 233/356/257 232/358/256 235/359/259 
f 234/357/258 235/360/259 236/361/260 237/362/261 
f 237/362/261 236/363/260 238/364/262 239/365/263 
f 140/366/264 139/367/265 240/368/266 241/369/267 
f 140/370/264 241/369/267 242/371/268 141/372/269 
f 100/373/270 145/374/271 243/375/272 244/376/273 
f 100/377/270 244/378/273 245/379/274 97/380/275 
f 104/381/276 103/382/277 246/383/278 247/384/279 
f 104/385/276 247/384/279 248/386/280 105/387/281 
f 110/388/282 109/389/283 249/390/284 250/391/285 
f 110/392/282 250/391/285 251/393/286 111/394/287 
f 116/395/288 115/396/289 252/397/290 253/398/291 
f 116/399/288 253/398/291 254/400/292 117/401/293 
f 122/402/294 121/403/295 255/404/296 256/405/297 
f 122/406/294 256/405/297 257/407/298 123/408/299 
f 128/409/300 127/410/301 258/411/302 259/412/303 
f 128/413/300 259/412/303 260/414/304 129/415/305 
f 134/416/306 133/417/307 261/418/308 262/419/309 
f 262/419/309 263/420/310 237/362/261 239/421/263 
f 262/422/309 261/418/308 264/423/311 263/420/310 
f 263/420/310 265/424/312 234/357/258 237/425/261 
f 263/426/310 264/423/311 266/427/313 265/424/312 
f 267/428/314 233/356/257 234/429/258 265/424/312 
f 265/430/312 266/427/313 268/431/315 267/428/314 
f 269/432/316 230/351/254 233/433/257 267/428/314 
f 267/434/314 268/431/315 270/435/317 269/432/316 
f 269/432/316 271/436/318 228/348/252 230/437/254 
f 269/438/316 270/435/317 272/439/319 271/436/318 
f 271/436/318 273/440/320 226/346/250 228/441/252 
f 271/442/318 272/439/319 274/443/321 273/440/320 
f 275/444/322 225/345/249 226/445/250 273/440/320 
f 275/444/322 273/446/320 274/443/321 276/447/323 
f 275/444/322 276/447/323 277/448/324 278/449/325 
f 279/450/326 278/449/325 277/451/324 280/452/327 
f 281/453/328 279/450/326 280/454/327 282/455/329 
f 170/248/171 281/453/328 282/456/329 171/457/172 
f 282/456/329 280/454/327 283/458/330 284/459/331 
f 283/458/330 285/460/332 286/461/333 287/462/334 
f 286/463/333 285/460/332 288/464/335 289/465/336 
f 290/466/337 289/465/336 288/464/335 291/467/338 
f 290/466/337 291/468/338 292/469/339 293/470/340 
f 294/471/341 293/470/340 292/472/339 295/473/342 
f 294/471/341 295/474/342 296/475/343 297/476/344 
f 297/476/344 296/477/343 298/478/345 299/479/346 
f 300/480/347 299/479/346 298/481/345 301/482/348 
f 300/480/347 301/483/348 302/484/349 260/414/304 
f 301/483/348 298/481/345 266/427/313 264/485/311 
f 303/486/350 300/480/347 260/487/304 259/412/303 
f 300/488/347 303/486/350 304/489/351 299/479/346 
f 305/490/352 303/486/350 259/491/303 258/411/302 
f 304/489/351 303/492/350 305/490/352 306/493/353 
f 307/494/354 297/476/344 299/495/346 304/489/351 
f 307/494/354 304/496/351 306/493/353 308/497/355 
f 307/494/354 309/498/356 294/471/341 297/499/344 
f 309/498/356 307/500/354 308/497/355 310/501/357 
f 311/502/358 293/470/340 294/503/341 309/498/356 
f 309/504/356 310/501/357 312/505/359 311/502/358 
f 313/506/360 290/466/337 293/507/340 311/502/358 
f 311/508/358 312/505/359 314/509/361 313/506/360 
f 313/506/360 315/510/362 289/465/336 290/511/337 
f 315/510/362 313/512/360 314/509/361 316/513/363 
f 315/510/362 316/513/363 317/514/364 318/515/365 
f 287/516/334 286/461/333 318/515/365 319/517/366 
f 320/518/367 287/516/334 319/519/366 321/520/368 
f 320/521/367 284/522/331 283/458/330 287/516/334 
f 174/253/176 284/522/331 320/518/367 175/523/177 
f 320/518/367 321/524/368 176/525/179 175/254/177 
f 319/519/366 322/526/369 323/527/370 321/524/368 
f 317/528/364 324/529/371 325/530/372 322/526/369 
f 324/531/371 317/528/364 316/513/363 326/532/373 
f 327/533/374 326/532/373 316/513/363 314/534/361 
f 328/535/375 329/536/376 327/533/374 330/537/377 
f 331/538/378 328/535/375 330/539/377 332/540/379 
f 331/538/378 332/541/379 333/542/380 334/543/381 
f 335/544/382 334/543/381 333/545/380 336/546/383 
f 337/547/384 335/544/382 336/548/383 338/549/385 
f 257/407/298 337/547/384 338/550/385 339/551/386 
f 336/548/383 306/493/353 305/552/352 338/550/385 
f 340/553/387 337/547/384 257/554/298 256/405/297 
f 335/544/382 337/555/384 340/553/387 341/556/388 
f 342/557/389 340/553/387 256/558/297 255/404/296 
f 341/556/388 340/559/387 342/557/389 343/560/390 
f 344/561/391 334/543/381 335/562/382 341/556/388 
f 341/563/388 343/560/390 345/564/392 344/561/391 
f 344/561/391 346/565/393 331/538/378 334/566/381 
f 344/567/391 345/564/392 347/568/394 346/565/393 
f 348/569/395 328/535/375 331/570/378 346/565/393 
f 346/571/393 347/568/394 349/572/396 348/569/395 
f 348/569/395 350/573/397 329/536/376 328/574/375 
f 329/575/376 350/573/397 351/576/398 352/577/399 
f 353/578/400 352/577/399 351/576/398 354/579/401 
f 324/529/371 353/578/400 355/580/402 325/581/372 
f 325/581/372 355/582/402 356/583/403 357/584/404 
f 325/581/372 357/585/404 323/586/370 322/526/369 
f 177/260/181 323/586/370 357/584/404 180/587/185 
f 180/264/185 357/584/404 356/588/403 181/589/186 
f 356/588/403 355/582/402 358/590/405 359/591/406 
f 358/590/405 354/592/401 360/593/407 361/594/408 
f 360/595/407 354/592/401 351/576/398 362/596/409 
f 363/597/410 362/596/409 351/576/398 350/598/397 
f 364/599/411 365/600/412 363/597/410 349/601/396 
f 366/602/413 364/599/411 349/572/396 347/603/394 
f 367/604/414 368/605/415 366/602/413 369/606/416 
f 367/604/414 369/607/416 370/608/417 371/609/418 
f 372/610/419 371/609/418 370/611/417 373/612/420 
f 372/610/419 373/613/420 374/614/421 254/400/292 
f 370/611/417 343/560/390 342/615/389 373/613/420 
f 253/398/291 375/616/422 372/610/419 254/617/292 
f 372/618/419 375/616/422 376/619/423 371/609/418 
f 252/397/290 377/620/424 375/616/422 253/621/291 
f 375/622/422 377/620/424 378/623/425 376/619/423 
f 379/624/426 367/604/414 371/625/418 376/619/423 
f 379/624/426 376/626/423 378/623/425 380/627/427 
f 381/628/428 368/605/415 367/629/414 379/624/426 
f 382/630/429 368/631/415 381/628/428 383/632/430 
f 384/633/431 365/600/412 364/634/411 382/635/429 
f 365/636/412 384/633/431 385/637/432 386/638/433 
f 386/638/433 385/637/432 387/639/434 388/640/435 
f 360/593/407 388/640/435 389/641/436 361/642/408 
f 361/642/408 389/643/436 390/644/437 391/645/438 
f 361/642/408 391/646/438 359/647/406 358/590/405 
f 182/267/188 359/647/406 391/645/438 183/648/190 
f 183/271/190 391/645/438 390/649/437 186/650/194 
f 390/649/437 389/643/436 392/651/439 393/652/440 
f 387/653/434 394/654/441 395/655/442 392/651/439 
f 396/656/443 394/657/441 387/653/434 385/637/432 
f 397/658/444 396/656/443 385/637/432 384/659/431 
f 398/660/445 397/658/444 383/661/430 399/662/446 
f 399/662/446 383/632/430 381/663/428 400/664/447 
f 401/665/448 400/664/447 380/666/427 402/667/449 
f 403/668/450 402/667/449 380/627/427 378/669/425 
f 404/670/451 405/671/452 403/668/450 406/672/453 
f 251/393/286 404/670/451 406/673/453 407/674/454 
f 403/668/450 378/623/425 377/675/424 406/673/453 
f 250/391/285 408/676/455 404/670/451 251/677/286 
f 404/678/451 408/676/455 409/679/456 405/671/452 
f 405/680/452 409/679/456 410/681/457 411/682/458 
f 412/683/459 401/665/448 402/684/449 411/682/458 
f 413/685/460 401/686/448 412/683/459 414/687/461 
f 415/688/462 398/660/445 399/689/446 413/685/460 
f 416/690/463 398/691/445 415/688/462 417/692/464 
f 416/690/463 417/692/464 418/693/465 419/694/466 
f 394/654/441 419/694/466 420/695/467 395/696/442 
f 421/697/468 395/696/442 420/698/467 422/699/469 
f 395/696/442 421/700/468 393/701/440 392/651/439 
f 187/276/195 393/701/440 421/697/468 188/702/197 
f 421/697/468 422/703/469 189/704/199 188/278/197 
f 422/703/469 420/698/467 423/705/470 424/706/471 
f 418/707/465 425/708/472 426/709/473 423/705/470 
f 425/710/472 418/707/465 417/692/464 427/711/474 
f 428/712/475 427/711/474 417/692/464 415/713/462 
f 429/714/476 428/712/475 414/715/461 430/716/477 
f 431/717/478 430/716/477 414/687/461 412/718/459 
f 432/719/479 433/720/480 431/717/478 410/721/457 
f 432/719/479 410/681/457 409/722/456 434/723/481 
f 435/724/482 436/725/483 434/723/481 437/726/484 
f 438/727/485 435/724/482 437/728/484 249/729/284 
f 434/723/481 409/679/456 408/730/455 437/728/484 
f 248/386/280 439/731/486 435/724/482 438/732/485 
f 435/733/482 439/731/486 440/734/487 436/725/483 
f 436/735/483 440/734/487 441/736/488 442/737/489 
f 442/737/489 443/738/490 433/720/480 432/739/479 
f 444/740/491 433/741/480 443/738/490 445/742/492 
f 446/743/493 429/714/476 430/744/477 444/740/491 
f 429/745/476 446/743/493 447/746/494 448/747/495 
f 448/747/495 447/746/494 449/748/496 450/749/497 
f 426/750/473 425/708/472 450/749/497 451/751/498 
f 426/752/473 451/753/498 452/754/499 453/755/500 
f 453/756/500 424/757/471 423/705/470 426/752/473 
f 192/286/203 424/757/471 453/755/500 193/758/204 
f 453/755/500 452/759/499 194/760/206 193/287/204 
f 451/753/498 454/761/501 455/762/502 452/759/499 
f 449/763/496 456/764/503 457/765/504 454/761/501 
f 456/766/503 449/763/496 447/767/494 458/768/505 
f 459/769/506 458/768/505 447/746/494 446/770/493 
f 460/771/507 459/769/506 445/772/492 461/773/508 
f 462/774/509 461/775/508 445/742/492 443/776/490 
f 463/777/510 462/774/509 441/778/488 464/779/511 
f 464/779/511 441/736/488 440/780/487 465/781/512 
f 466/782/513 465/781/512 467/783/514 468/784/515 
f 246/383/278 468/784/515 467/785/514 247/786/279 
f 467/785/514 465/781/512 440/734/487 439/787/486 
f 469/788/516 468/784/515 246/789/278 470/790/517 
f 466/782/513 468/791/515 469/788/516 471/792/518 
f 472/793/519 466/794/513 471/792/518 473/795/520 
f 472/793/519 474/796/521 463/777/510 464/797/511 
f 475/798/522 463/799/510 474/800/521 476/801/523 
f 475/798/522 477/802/524 460/803/507 461/804/508 
f 460/805/507 477/802/524 478/806/525 479/807/526 
f 480/808/527 479/809/526 478/806/525 481/810/528 
f 456/764/503 480/808/527 482/811/529 457/812/504 
f 457/812/504 482/813/529 483/814/530 484/815/531 
f 457/812/504 484/816/531 455/817/502 454/761/501 
f 455/817/502 484/815/531 198/818/212 195/293/208 
f 198/297/212 484/815/531 483/819/530 199/820/213 
f 483/819/530 482/813/529 485/821/532 486/822/533 
f 481/823/528 487/824/534 488/825/535 485/821/532 
f 487/826/534 481/823/528 478/806/525 489/827/536 
f 490/828/537 489/827/536 478/806/525 477/829/524 
f 491/830/538 490/828/537 476/831/523 492/832/539 
f 492/832/539 476/801/523 474/833/521 493/834/540 
f 494/835/541 493/834/540 473/836/520 495/837/542 
f 495/838/542 473/795/520 471/839/518 496/840/543 
f 497/841/544 496/840/543 498/842/545 499/843/546 
f 244/378/273 499/843/546 498/844/545 245/845/274 
f 496/840/543 471/792/518 469/846/516 498/844/545 
f 500/847/547 499/848/546 244/849/273 243/375/272 
f 497/850/544 499/851/546 500/847/547 501/852/548 
f 502/853/549 497/854/544 501/852/548 503/855/550 
f 502/856/549 504/857/551 494/835/541 495/858/542 
f 505/859/552 494/860/541 504/857/551 506/861/553 
f 505/862/552 507/863/554 491/830/538 492/864/539 
f 491/865/538 507/866/554 508/867/555 509/868/556 
f 510/869/557 509/868/556 508/867/555 511/870/558 
f 487/824/534 510/869/557 512/871/559 488/872/535 
f 513/873/560 488/872/535 512/874/559 514/875/561 
f 513/876/560 486/877/533 485/821/532 488/872/535 
f 486/877/533 513/878/560 201/879/217 200/300/215 
f 201/880/217 513/873/560 514/881/561 204/882/221 
f 512/874/559 515/883/562 516/884/563 514/881/561 
f 511/885/558 517/886/564 518/887/565 515/888/562 
f 517/889/564 511/885/558 508/867/555 519/890/566 
f 520/891/567 519/892/566 508/893/555 507/894/554 
f 521/895/568 522/896/569 520/897/567 506/898/553 
f 523/899/570 521/895/568 506/900/553 504/901/551 
f 524/902/571 525/903/572 523/899/570 503/904/550 
f 524/902/571 503/855/550 501/905/548 526/906/573 
f 527/907/574 528/908/575 526/906/573 529/909/576 
f 527/907/574 529/910/576 530/911/577 242/371/268 
f 529/910/576 526/906/573 501/852/548 500/912/547 
f 531/913/578 527/907/574 242/914/268 241/369/267 
f 527/915/574 531/913/578 532/916/579 528/908/575 
f 533/917/580 528/918/575 532/916/579 534/919/581 
f 535/920/582 525/903/572 524/921/571 533/917/580 
f 536/922/583 525/923/572 535/920/582 537/924/584 
f 538/925/585 522/896/569 521/926/568 536/922/583 
f 539/927/586 522/928/569 538/925/585 540/929/587 
f 539/927/586 540/929/587 541/930/588 542/931/589 
f 517/932/564 542/931/589 543/933/590 518/934/565 
f 518/934/565 543/935/590 544/936/591 545/937/592 
f 545/938/592 516/939/563 515/883/562 518/940/565 
f 516/939/563 545/941/592 206/942/224 205/943/222 
f 206/315/224 545/937/592 544/944/591 207/945/226 
f 544/944/591 543/935/590 546/946/593 547/947/594 
f 546/946/593 541/948/588 548/949/595 549/950/596 
f 548/951/595 541/948/588 540/929/587 550/952/597 
f 550/952/597 540/929/587 538/953/585 551/954/598 
f 552/955/599 553/956/600 551/954/598 537/957/584 
f 552/955/599 537/924/584 535/958/582 554/959/601 
f 555/960/602 556/961/603 554/959/601 534/962/581 
f 557/963/604 555/960/602 534/919/581 532/964/579 
f 554/965/601 556/961/603 558/966/605 552/955/599 
f 553/956/600 552/967/599 558/966/605 559/968/606 
f 560/969/607 553/970/600 559/968/606 561/971/608 
f 560/969/607 561/971/608 562/972/609 563/973/610 
f 548/949/595 563/973/610 564/974/611 549/975/596 
f 565/976/612 549/975/596 564/977/611 566/978/613 
f 565/979/612 547/980/594 546/946/593 549/975/596 
f 210/320/230 547/980/594 565/976/612 211/981/231 
f 565/976/612 566/982/613 212/983/233 211/321/231 
f 566/982/613 564/977/611 567/984/614 568/985/615 
f 567/984/614 562/986/609 222/341/246 220/987/244 
f 566/982/613 568/988/615 213/989/235 212/323/233 
f 568/988/615 567/984/614 220/338/244 219/990/243 
f 567/991/614 564/977/611 563/973/610 562/986/609 
f 561/971/608 224/344/248 222/992/246 562/986/609 
f 550/952/597 551/993/598 553/956/600 560/969/607 
f 563/994/610 548/949/595 550/952/597 560/969/607 
f 544/944/591 547/980/594 210/995/230 207/316/226 
f 541/948/588 546/996/593 543/935/590 542/931/589 
f 536/997/583 537/924/584 551/954/598 538/925/585 
f 535/920/582 533/998/580 534/919/581 554/959/601 
f 569/999/616 557/963/604 532/916/579 531/1000/578 
f 240/368/266 569/999/616 531/913/578 241/1001/267 
f 526/1002/573 528/908/575 533/917/580 524/902/571 
f 523/1003/570 525/903/572 536/922/583 521/895/568 
f 519/1004/566 520/1005/567 522/896/569 539/927/586 
f 539/927/586 542/1006/589 517/932/564 519/1004/566 
f 204/308/221 514/881/561 516/939/563 205/1007/222 
f 511/885/558 515/1008/562 512/874/559 510/869/557 
f 505/1009/552 506/861/553 520/891/567 507/863/554 
f 502/1010/549 503/855/550 523/899/570 504/1011/551 
f 529/910/576 500/847/547 243/1012/272 530/1013/577 
f 495/838/542 496/1014/543 497/841/544 502/1015/549 
f 492/832/539 493/1016/540 494/835/541 505/859/552 
f 489/1017/536 490/1018/537 491/830/538 509/868/556 
f 509/868/556 510/1019/557 487/824/534 489/827/536 
f 199/298/213 483/819/530 486/877/533 200/1020/215 
f 481/823/528 485/1021/532 482/813/529 480/808/527 
f 475/1022/522 476/801/523 490/1023/537 477/802/524 
f 472/1024/519 473/795/520 493/834/540 474/800/521 
f 245/379/274 498/844/545 469/788/516 470/1025/517 
f 464/779/511 465/1026/512 466/782/513 472/793/519 
f 462/1027/509 463/777/510 475/798/522 461/775/508 
f 459/1028/506 460/771/507 479/809/526 458/768/505 
f 479/809/526 480/1029/527 456/764/503 458/768/505 
f 452/759/499 455/817/502 195/1030/208 194/289/206 
f 449/763/496 454/1031/501 451/753/498 450/749/497 
f 446/743/493 444/1032/491 445/742/492 459/769/506 
f 442/1033/489 441/736/488 462/774/509 443/738/490 
f 467/785/514 439/731/486 248/1034/280 247/384/279 
f 432/719/479 434/1035/481 436/725/483 442/737/489 
f 430/716/477 431/1036/478 433/720/480 444/740/491 
f 427/711/474 428/1037/475 429/714/476 448/747/495 
f 450/1038/497 425/708/472 427/1039/474 448/747/495 
f 189/282/199 422/703/469 424/757/471 192/1040/203 
f 423/1041/470 420/698/467 419/694/466 418/707/465 
f 413/1042/460 414/687/461 428/712/475 415/688/462 
f 412/683/459 411/1043/458 410/681/457 431/717/478 
f 437/728/484 408/676/455 250/1044/285 249/390/284 
f 402/667/449 403/1045/450 405/671/452 411/682/458 
f 400/1046/447 401/665/448 413/685/460 399/662/446 
f 396/656/443 397/1047/444 398/660/445 416/690/463 
f 416/1048/463 419/1049/466 394/654/441 396/656/443 
f 390/649/437 393/701/440 187/1050/195 186/275/194 
f 387/653/434 392/1051/439 389/643/436 388/640/435 
f 382/1052/429 383/632/430 397/658/444 384/1053/431 
f 381/628/428 379/1054/426 380/627/427 400/664/447 
f 406/673/453 377/620/424 252/1055/290 407/1056/454 
f 370/611/417 369/607/416 345/564/392 343/1057/390 
f 366/602/413 347/568/394 345/1058/392 369/607/416 
f 366/1059/413 368/605/415 382/635/429 364/599/411 
f 363/1060/410 365/600/412 386/638/433 362/596/409 
f 386/638/433 388/1061/435 360/593/407 362/596/409 
f 356/588/403 359/647/406 182/1062/188 181/265/186 
f 358/1063/405 355/582/402 353/578/400 354/592/401 
f 348/1064/395 349/572/396 363/597/410 350/573/397 
f 374/1065/421 373/613/420 342/557/389 255/1066/296 
f 336/548/383 333/545/380 308/497/355 306/1067/353 
f 332/541/379 310/501/357 308/1068/355 333/545/380 
f 330/539/377 312/505/359 310/1069/357 332/541/379 
f 330/539/377 327/533/374 314/509/361 312/1070/359 
f 327/1071/374 329/536/376 352/577/399 326/532/373 
f 353/1072/400 324/529/371 326/532/373 352/577/399 
f 321/524/368 323/586/370 177/1073/181 176/256/179 
f 317/528/364 322/1074/369 319/519/366 318/515/365 
f 339/1075/386 338/550/385 305/490/352 258/1076/302 
f 298/481/345 296/477/343 268/431/315 266/1077/313 
f 296/477/343 295/474/342 270/435/317 268/1078/315 
f 292/472/339 272/439/319 270/1079/317 295/474/342 
f 292/472/339 291/468/338 274/443/321 272/1080/319 
f 291/468/338 288/464/335 276/447/323 274/1081/321 
f 318/1082/365 286/461/333 289/465/336 315/510/362 
f 282/456/329 284/522/331 174/1083/176 171/249/172 
f 285/460/332 283/1084/330 280/454/327 277/451/324 
f 285/1085/332 277/451/324 276/447/323 288/464/335 
f 302/1086/349 301/483/348 264/423/311 261/1087/308 
f 134/1088/306 262/419/309 239/365/263 135/1089/617 
f 569/999/616 240/1090/266 238/1091/262 236/363/260 
f 557/963/604 569/1092/616 236/363/260 235/360/259 
f 557/1093/604 235/360/259 232/358/256 555/960/602 
f 556/961/603 555/1094/602 232/358/256 231/354/255 
f 556/1095/603 231/354/255 229/352/253 558/966/605 
f 559/968/606 558/1096/605 229/352/253 227/349/251 
f 561/971/608 559/1097/606 227/349/251 224/344/248 
f 275/444/322 278/1098/325 223/342/247 225/345/249 
f 279/1099/326 221/339/245 223/342/247 278/449/325 
f 568/988/615 219/336/243 216/1100/239 213/327/235 
f 281/1101/328 218/334/242 221/339/245 279/450/326 
f 281/453/328 170/1102/171 217/332/240 218/334/242 
f 165/1103/170 164/1104/241 217/332/240 170/248/171 
f 44/1105/618 42/1106/618 39/1107/618 38/1108/618 36/1109/618 33/1110/618 32/1111/618 30/1112/618 27/1113/618 26/1114/618 23/1115/618 22/1116/618 19/1117/618 18/1118/618 15/1119/618 14/1120/618 11/1121/618 10/1122/618 8/1123/618 5/6/618 3/3/618 2/1124/618 48/1125/618 45/1126/618 
s 8
f 570/1127/619 203/1128/620 148/1129/148 80/137/80 81/138/81 
f 81/138/81 82/141/82 150/1130/150 202/1131/621 570/1132/619 
f 571/1133/622 197/1134/623 151/1135/151 83/142/83 84/145/84 
f 84/145/84 85/146/85 153/1136/153 196/1137/624 571/1138/622 
f 572/1139/625 191/1140/626 154/1141/154 86/149/86 87/150/87 
f 87/150/87 88/152/88 156/1142/156 190/1143/627 572/1144/625 
f 90/156/90 573/1145/628 185/1146/629 157/1147/157 89/155/89 
f 90/156/90 91/158/91 159/1148/159 184/1149/630 573/1150/628 
f 93/162/93 574/1151/631 179/1152/632 160/1153/160 92/161/92 
f 93/162/93 94/165/94 162/1154/162 178/1155/633 574/1156/631 
f 96/169/96 575/1157/634 173/1158/635 163/1159/163 95/166/95 
f 96/169/96 74/171/74 165/1160/165 172/1161/636 575/1162/634 
f 75/126/75 576/1163/637 215/1164/638 166/1165/166 73/123/73 
f 75/126/75 76/127/76 168/1166/168 214/1167/639 576/1168/637 
f 78/131/78 577/1169/640 209/1170/641 169/1171/169 77/130/77 
f 78/131/78 79/134/79 147/1172/147 208/1173/642 577/1174/640 
s 1
f 171/249/172 174/253/176 173/1175/175 575/1176/643 172/1177/173 
f 177/260/181 180/264/185 179/1178/184 574/1179/644 178/1180/182 
f 183/271/190 186/275/194 185/1181/193 573/1182/645 184/1183/191 
f 189/282/199 192/286/203 191/1184/202 572/1185/646 190/1186/200 
f 195/293/208 198/297/212 197/1187/211 571/1188/647 196/1189/209 
f 201/304/217 204/308/221 203/1190/220 570/1191/648 202/1192/218 
f 207/316/226 210/320/230 209/1193/229 577/1194/649 208/1195/227 
f 213/327/235 216/331/239 215/1196/238 576/1197/650 214/1198/236 
f 238/1091/262 137/1199/651 136/1200/652 135/1201/617 239/365/263 
f 139/1202/265 138/1203/653 137/1204/651 238/1091/262 240/368/266 
f 530/1013/577 143/1205/654 142/1206/655 141/1207/269 242/371/268 
f 145/1208/271 144/1209/656 143/1210/654 530/1013/577 243/375/272 
f 470/790/517 101/1211/657 98/1212/658 97/1213/275 245/379/274 
f 103/1214/277 102/1215/659 101/1216/657 470/790/517 246/383/278 
f 438/727/485 107/1217/660 106/1218/661 105/1219/281 248/386/280 
f 109/1220/283 108/1221/662 107/1222/660 438/727/485 249/390/284 
f 407/1056/454 113/1223/663 112/1224/664 111/1225/287 251/393/286 
f 115/1226/289 114/1227/665 113/1228/663 407/1056/454 252/397/290 
f 374/1065/421 119/1229/666 118/1230/667 117/1231/293 254/400/292 
f 121/1232/295 120/1233/668 119/1234/666 374/1065/421 255/404/296 
f 339/1075/386 125/1235/669 124/1236/670 123/1237/299 257/407/298 
f 127/1238/301 126/1239/671 125/1240/669 339/1075/386 258/411/302 
f 302/1086/349 131/1241/672 130/1242/673 129/1243/305 260/414/304 
f 133/1244/307 132/1245/674 131/1246/672 302/1086/349 261/418/308 
# 537 polygons

