ms.obj['L (Grounded)'] = {
xml:`
	<decoration>
		<vDecoration types='all'>
			<obj name='$Sphere001' />
		</vDecoration>
		<vDecoration types='[1]' Desirability='5'>
			<obj name='$Sphere001' />
		</vDecoration>
		<edgeBrush types='all' Min_Length='0.2' Max_Length='4'>
			<extrusion name='$Circle001' />
		</edgeBrush>
		<edgeBrush types='[14]' Min_Length='0.2' Max_Length='1'>
			<extrusion name='$Circle001' />
		</edgeBrush>
	</decoration>
`,

obj: `# 3ds Max Wavefront OBJ Exporter v0.97b - (c)2007 guruware
# File Created: 23.07.2022 00:26:56

mtllib Lground.mtl

#
# object Line002
#

v  -0.0000 20.0000 10.0000
v  -0.0000 -0.0000 10.0000
v  20.0000 0.0000 10.0000
v  20.0000 -20.0000 10.0000
v  40.0000 -40.0000 10.0000
v  40.0000 40.0000 10.0000
v  -40.0000 40.0000 10.0000
v  -40.0000 -40.0000 10.0000
v  -20.0000 -20.0000 10.0000
v  -20.0000 20.0000 10.0000
v  20.0000 -20.0000 30.0000
v  -20.0000 -20.0000 30.0000
v  0.0000 20.0000 30.0000
v  -20.0000 20.0000 30.0000
v  0.0000 0.0000 30.0000
v  20.0000 0.0000 30.0000
# 16 vertices

vn 0.0000 0.0000 1.0000
vn 0.0000 -1.0000 0.0000
vn 1.0000 0.0000 0.0000
vn -0.0000 1.0000 -0.0000
vn 1.0000 -0.0000 -0.0000
vn 0.0000 1.0000 0.0000
vn -1.0000 0.0000 -0.0000
# 7 vertex normals

g Line002
usemtl wire_177028149
s 1
f 1//1 2//1 3//1 4//1 5//1 6//1 7//1 8//1 5//1 4//1 9//1 10//1 
s 2
f 11//2 12//2 9//2 4//2 
s 1
f 13//1 14//1 12//1 
f 15//1 13//1 12//1 
f 15//1 12//1 11//1 
f 16//1 15//1 11//1 
s 4
f 16//3 11//3 4//3 3//3 
s 2
f 15//4 16//4 3//4 2//4 
s 4
f 13//5 15//5 2//5 1//5 
s 2
f 14//6 13//6 1//6 10//6 
s 4
f 12//7 14//7 10//7 9//7 
# 7 polygons - 4 triangles
`
};