ms.obj['Pyramid'] = {
xml:`
	<decoration>
		<vDecoration types='all'>
			<obj name='$Sphere001' />
		</vDecoration>
		<edgeBrush types='all'>
			<extrusion name='$Circle001' />
		</edgeBrush>
	</decoration>
`,

obj: `# 3ds Max Wavefront OBJ Exporter v0.97b - (c)2007 guruware
# File Created: 09.06.2022 06:43:51

mtllib pyramid.mtl

#
# object Pyramid001
#

v  0.0000 0.0000 50.0050
v  -50.0000 -50.0000 0.0050
v  50.0000 -50.0000 0.0050
v  50.0000 50.0000 0.0050
v  -50.0000 50.0000 0.0050
v  0.0000 0.0000 0.0050
# 6 vertices

vn 0.0000 -0.7071 0.7071
vn 0.7071 0.0000 0.7071
vn 0.0000 0.7071 0.7071
vn -0.7071 0.0000 0.7071
vn 0.0000 0.0000 -1.0000
# 5 vertex normals

vt 0.5000 1.0000 0.0000
vt 0.0000 0.0000 0.0000
vt 1.0000 0.0000 0.0000
vt 0.0000 1.0000 0.0000
vt 0.5000 0.5000 0.0000
vt 1.0000 1.0000 0.0000
# 6 texture coords

g Pyramid001
usemtl wire_225088199
s 4
f 1/1/1 2/2/1 3/3/1 
s 2
f 1/1/2 3/2/2 4/3/2 
s 16
f 1/1/3 4/2/3 5/3/3 
s 32
f 1/1/4 5/2/4 2/3/4 
s 8
f 2/4/5 6/5/5 3/6/5 
f 3/6/5 6/5/5 4/3/5 
f 4/3/5 6/5/5 5/2/5 
f 5/2/5 6/5/5 2/4/5 
# 0 polygons - 8 triangles
`
};
